%TF.GenerationSoftware,KiCad,Pcbnew,9.0.4*%
%TF.CreationDate,2025-10-30T00:52:22-04:00*%
%TF.ProjectId,DevBoard,44657642-6f61-4726-942e-6b696361645f,rev?*%
%TF.SameCoordinates,Original*%
%TF.FileFunction,Legend,Bot*%
%TF.FilePolarity,Positive*%
%FSLAX46Y46*%
G04 Gerber Fmt 4.6, Leading zero omitted, Abs format (unit mm)*
G04 Created by KiCad (PCBNEW 9.0.4) date 2025-10-30 00:52:22*
%MOMM*%
%LPD*%
G01*
G04 APERTURE LIST*
%ADD10C,0.300000*%
%ADD11C,0.150000*%
%ADD12C,0.000000*%
%ADD13C,0.120000*%
G04 APERTURE END LIST*
D10*
X95839171Y-116285489D02*
X97339171Y-116285489D01*
X97339171Y-116285489D02*
X96267742Y-115785489D01*
X96267742Y-115785489D02*
X97339171Y-115285489D01*
X97339171Y-115285489D02*
X95839171Y-115285489D01*
X95839171Y-113928346D02*
X96624885Y-113928346D01*
X96624885Y-113928346D02*
X96767742Y-113999774D01*
X96767742Y-113999774D02*
X96839171Y-114142631D01*
X96839171Y-114142631D02*
X96839171Y-114428346D01*
X96839171Y-114428346D02*
X96767742Y-114571203D01*
X95910600Y-113928346D02*
X95839171Y-114071203D01*
X95839171Y-114071203D02*
X95839171Y-114428346D01*
X95839171Y-114428346D02*
X95910600Y-114571203D01*
X95910600Y-114571203D02*
X96053457Y-114642631D01*
X96053457Y-114642631D02*
X96196314Y-114642631D01*
X96196314Y-114642631D02*
X96339171Y-114571203D01*
X96339171Y-114571203D02*
X96410600Y-114428346D01*
X96410600Y-114428346D02*
X96410600Y-114071203D01*
X96410600Y-114071203D02*
X96482028Y-113928346D01*
X95839171Y-112571203D02*
X97339171Y-112571203D01*
X95910600Y-112571203D02*
X95839171Y-112714060D01*
X95839171Y-112714060D02*
X95839171Y-112999774D01*
X95839171Y-112999774D02*
X95910600Y-113142631D01*
X95910600Y-113142631D02*
X95982028Y-113214060D01*
X95982028Y-113214060D02*
X96124885Y-113285488D01*
X96124885Y-113285488D02*
X96553457Y-113285488D01*
X96553457Y-113285488D02*
X96696314Y-113214060D01*
X96696314Y-113214060D02*
X96767742Y-113142631D01*
X96767742Y-113142631D02*
X96839171Y-112999774D01*
X96839171Y-112999774D02*
X96839171Y-112714060D01*
X96839171Y-112714060D02*
X96767742Y-112571203D01*
X95910600Y-111285488D02*
X95839171Y-111428345D01*
X95839171Y-111428345D02*
X95839171Y-111714060D01*
X95839171Y-111714060D02*
X95910600Y-111856917D01*
X95910600Y-111856917D02*
X96053457Y-111928345D01*
X96053457Y-111928345D02*
X96624885Y-111928345D01*
X96624885Y-111928345D02*
X96767742Y-111856917D01*
X96767742Y-111856917D02*
X96839171Y-111714060D01*
X96839171Y-111714060D02*
X96839171Y-111428345D01*
X96839171Y-111428345D02*
X96767742Y-111285488D01*
X96767742Y-111285488D02*
X96624885Y-111214060D01*
X96624885Y-111214060D02*
X96482028Y-111214060D01*
X96482028Y-111214060D02*
X96339171Y-111928345D01*
X95839171Y-109428346D02*
X97339171Y-109428346D01*
X96767742Y-109428346D02*
X96839171Y-109285489D01*
X96839171Y-109285489D02*
X96839171Y-108999774D01*
X96839171Y-108999774D02*
X96767742Y-108856917D01*
X96767742Y-108856917D02*
X96696314Y-108785489D01*
X96696314Y-108785489D02*
X96553457Y-108714060D01*
X96553457Y-108714060D02*
X96124885Y-108714060D01*
X96124885Y-108714060D02*
X95982028Y-108785489D01*
X95982028Y-108785489D02*
X95910600Y-108856917D01*
X95910600Y-108856917D02*
X95839171Y-108999774D01*
X95839171Y-108999774D02*
X95839171Y-109285489D01*
X95839171Y-109285489D02*
X95910600Y-109428346D01*
X96839171Y-108214060D02*
X95839171Y-107856917D01*
X96839171Y-107499774D02*
X95839171Y-107856917D01*
X95839171Y-107856917D02*
X95482028Y-107999774D01*
X95482028Y-107999774D02*
X95410600Y-108071203D01*
X95410600Y-108071203D02*
X95339171Y-108214060D01*
X95982028Y-104928346D02*
X95910600Y-104999774D01*
X95910600Y-104999774D02*
X95839171Y-105214060D01*
X95839171Y-105214060D02*
X95839171Y-105356917D01*
X95839171Y-105356917D02*
X95910600Y-105571203D01*
X95910600Y-105571203D02*
X96053457Y-105714060D01*
X96053457Y-105714060D02*
X96196314Y-105785489D01*
X96196314Y-105785489D02*
X96482028Y-105856917D01*
X96482028Y-105856917D02*
X96696314Y-105856917D01*
X96696314Y-105856917D02*
X96982028Y-105785489D01*
X96982028Y-105785489D02*
X97124885Y-105714060D01*
X97124885Y-105714060D02*
X97267742Y-105571203D01*
X97267742Y-105571203D02*
X97339171Y-105356917D01*
X97339171Y-105356917D02*
X97339171Y-105214060D01*
X97339171Y-105214060D02*
X97267742Y-104999774D01*
X97267742Y-104999774D02*
X97196314Y-104928346D01*
X95839171Y-104071203D02*
X95910600Y-104214060D01*
X95910600Y-104214060D02*
X96053457Y-104285489D01*
X96053457Y-104285489D02*
X97339171Y-104285489D01*
X95839171Y-102856918D02*
X96624885Y-102856918D01*
X96624885Y-102856918D02*
X96767742Y-102928346D01*
X96767742Y-102928346D02*
X96839171Y-103071203D01*
X96839171Y-103071203D02*
X96839171Y-103356918D01*
X96839171Y-103356918D02*
X96767742Y-103499775D01*
X95910600Y-102856918D02*
X95839171Y-102999775D01*
X95839171Y-102999775D02*
X95839171Y-103356918D01*
X95839171Y-103356918D02*
X95910600Y-103499775D01*
X95910600Y-103499775D02*
X96053457Y-103571203D01*
X96053457Y-103571203D02*
X96196314Y-103571203D01*
X96196314Y-103571203D02*
X96339171Y-103499775D01*
X96339171Y-103499775D02*
X96410600Y-103356918D01*
X96410600Y-103356918D02*
X96410600Y-102999775D01*
X96410600Y-102999775D02*
X96482028Y-102856918D01*
X96839171Y-102285489D02*
X95839171Y-101928346D01*
X96839171Y-101571203D02*
X95839171Y-101928346D01*
X95839171Y-101928346D02*
X95482028Y-102071203D01*
X95482028Y-102071203D02*
X95410600Y-102142632D01*
X95410600Y-102142632D02*
X95339171Y-102285489D01*
X95839171Y-99856918D02*
X97339171Y-99856918D01*
X97339171Y-99856918D02*
X95839171Y-98999775D01*
X95839171Y-98999775D02*
X97339171Y-98999775D01*
X95839171Y-98285489D02*
X96839171Y-98285489D01*
X97339171Y-98285489D02*
X97267742Y-98356917D01*
X97267742Y-98356917D02*
X97196314Y-98285489D01*
X97196314Y-98285489D02*
X97267742Y-98214060D01*
X97267742Y-98214060D02*
X97339171Y-98285489D01*
X97339171Y-98285489D02*
X97196314Y-98285489D01*
X95910600Y-96928346D02*
X95839171Y-97071203D01*
X95839171Y-97071203D02*
X95839171Y-97356917D01*
X95839171Y-97356917D02*
X95910600Y-97499774D01*
X95910600Y-97499774D02*
X95982028Y-97571203D01*
X95982028Y-97571203D02*
X96124885Y-97642631D01*
X96124885Y-97642631D02*
X96553457Y-97642631D01*
X96553457Y-97642631D02*
X96696314Y-97571203D01*
X96696314Y-97571203D02*
X96767742Y-97499774D01*
X96767742Y-97499774D02*
X96839171Y-97356917D01*
X96839171Y-97356917D02*
X96839171Y-97071203D01*
X96839171Y-97071203D02*
X96767742Y-96928346D01*
X95839171Y-96285489D02*
X97339171Y-96285489D01*
X95839171Y-95642632D02*
X96624885Y-95642632D01*
X96624885Y-95642632D02*
X96767742Y-95714060D01*
X96767742Y-95714060D02*
X96839171Y-95856917D01*
X96839171Y-95856917D02*
X96839171Y-96071203D01*
X96839171Y-96071203D02*
X96767742Y-96214060D01*
X96767742Y-96214060D02*
X96696314Y-96285489D01*
X95839171Y-94714060D02*
X95910600Y-94856917D01*
X95910600Y-94856917D02*
X95982028Y-94928346D01*
X95982028Y-94928346D02*
X96124885Y-94999774D01*
X96124885Y-94999774D02*
X96553457Y-94999774D01*
X96553457Y-94999774D02*
X96696314Y-94928346D01*
X96696314Y-94928346D02*
X96767742Y-94856917D01*
X96767742Y-94856917D02*
X96839171Y-94714060D01*
X96839171Y-94714060D02*
X96839171Y-94499774D01*
X96839171Y-94499774D02*
X96767742Y-94356917D01*
X96767742Y-94356917D02*
X96696314Y-94285489D01*
X96696314Y-94285489D02*
X96553457Y-94214060D01*
X96553457Y-94214060D02*
X96124885Y-94214060D01*
X96124885Y-94214060D02*
X95982028Y-94285489D01*
X95982028Y-94285489D02*
X95910600Y-94356917D01*
X95910600Y-94356917D02*
X95839171Y-94499774D01*
X95839171Y-94499774D02*
X95839171Y-94714060D01*
X95839171Y-93356917D02*
X95910600Y-93499774D01*
X95910600Y-93499774D02*
X96053457Y-93571203D01*
X96053457Y-93571203D02*
X97339171Y-93571203D01*
X95910600Y-92856917D02*
X95839171Y-92714060D01*
X95839171Y-92714060D02*
X95839171Y-92428346D01*
X95839171Y-92428346D02*
X95910600Y-92285489D01*
X95910600Y-92285489D02*
X96053457Y-92214060D01*
X96053457Y-92214060D02*
X96124885Y-92214060D01*
X96124885Y-92214060D02*
X96267742Y-92285489D01*
X96267742Y-92285489D02*
X96339171Y-92428346D01*
X96339171Y-92428346D02*
X96339171Y-92642632D01*
X96339171Y-92642632D02*
X96410600Y-92785489D01*
X96410600Y-92785489D02*
X96553457Y-92856917D01*
X96553457Y-92856917D02*
X96624885Y-92856917D01*
X96624885Y-92856917D02*
X96767742Y-92785489D01*
X96767742Y-92785489D02*
X96839171Y-92642632D01*
X96839171Y-92642632D02*
X96839171Y-92428346D01*
X96839171Y-92428346D02*
X96767742Y-92285489D01*
X95839171Y-91356917D02*
X95910600Y-91499774D01*
X95910600Y-91499774D02*
X95982028Y-91571203D01*
X95982028Y-91571203D02*
X96124885Y-91642631D01*
X96124885Y-91642631D02*
X96553457Y-91642631D01*
X96553457Y-91642631D02*
X96696314Y-91571203D01*
X96696314Y-91571203D02*
X96767742Y-91499774D01*
X96767742Y-91499774D02*
X96839171Y-91356917D01*
X96839171Y-91356917D02*
X96839171Y-91142631D01*
X96839171Y-91142631D02*
X96767742Y-90999774D01*
X96767742Y-90999774D02*
X96696314Y-90928346D01*
X96696314Y-90928346D02*
X96553457Y-90856917D01*
X96553457Y-90856917D02*
X96124885Y-90856917D01*
X96124885Y-90856917D02*
X95982028Y-90928346D01*
X95982028Y-90928346D02*
X95910600Y-90999774D01*
X95910600Y-90999774D02*
X95839171Y-91142631D01*
X95839171Y-91142631D02*
X95839171Y-91356917D01*
X96839171Y-90214060D02*
X95839171Y-90214060D01*
X96696314Y-90214060D02*
X96767742Y-90142631D01*
X96767742Y-90142631D02*
X96839171Y-89999774D01*
X96839171Y-89999774D02*
X96839171Y-89785488D01*
X96839171Y-89785488D02*
X96767742Y-89642631D01*
X96767742Y-89642631D02*
X96624885Y-89571203D01*
X96624885Y-89571203D02*
X95839171Y-89571203D01*
X93510600Y-115672632D02*
X93439171Y-115815489D01*
X93439171Y-115815489D02*
X93439171Y-116101203D01*
X93439171Y-116101203D02*
X93510600Y-116244060D01*
X93510600Y-116244060D02*
X93582028Y-116315489D01*
X93582028Y-116315489D02*
X93724885Y-116386917D01*
X93724885Y-116386917D02*
X94153457Y-116386917D01*
X94153457Y-116386917D02*
X94296314Y-116315489D01*
X94296314Y-116315489D02*
X94367742Y-116244060D01*
X94367742Y-116244060D02*
X94439171Y-116101203D01*
X94439171Y-116101203D02*
X94439171Y-115815489D01*
X94439171Y-115815489D02*
X94367742Y-115672632D01*
X93439171Y-114815489D02*
X93510600Y-114958346D01*
X93510600Y-114958346D02*
X93653457Y-115029775D01*
X93653457Y-115029775D02*
X94939171Y-115029775D01*
X93439171Y-113601204D02*
X94224885Y-113601204D01*
X94224885Y-113601204D02*
X94367742Y-113672632D01*
X94367742Y-113672632D02*
X94439171Y-113815489D01*
X94439171Y-113815489D02*
X94439171Y-114101204D01*
X94439171Y-114101204D02*
X94367742Y-114244061D01*
X93510600Y-113601204D02*
X93439171Y-113744061D01*
X93439171Y-113744061D02*
X93439171Y-114101204D01*
X93439171Y-114101204D02*
X93510600Y-114244061D01*
X93510600Y-114244061D02*
X93653457Y-114315489D01*
X93653457Y-114315489D02*
X93796314Y-114315489D01*
X93796314Y-114315489D02*
X93939171Y-114244061D01*
X93939171Y-114244061D02*
X94010600Y-114101204D01*
X94010600Y-114101204D02*
X94010600Y-113744061D01*
X94010600Y-113744061D02*
X94082028Y-113601204D01*
X94439171Y-113029775D02*
X93439171Y-112672632D01*
X94439171Y-112315489D02*
X93439171Y-112672632D01*
X93439171Y-112672632D02*
X93082028Y-112815489D01*
X93082028Y-112815489D02*
X93010600Y-112886918D01*
X93010600Y-112886918D02*
X92939171Y-113029775D01*
X94439171Y-111744061D02*
X93439171Y-111744061D01*
X94296314Y-111744061D02*
X94367742Y-111672632D01*
X94367742Y-111672632D02*
X94439171Y-111529775D01*
X94439171Y-111529775D02*
X94439171Y-111315489D01*
X94439171Y-111315489D02*
X94367742Y-111172632D01*
X94367742Y-111172632D02*
X94224885Y-111101204D01*
X94224885Y-111101204D02*
X93439171Y-111101204D01*
X93439171Y-110386918D02*
X94439171Y-110386918D01*
X94939171Y-110386918D02*
X94867742Y-110458346D01*
X94867742Y-110458346D02*
X94796314Y-110386918D01*
X94796314Y-110386918D02*
X94867742Y-110315489D01*
X94867742Y-110315489D02*
X94939171Y-110386918D01*
X94939171Y-110386918D02*
X94796314Y-110386918D01*
X93510600Y-109029775D02*
X93439171Y-109172632D01*
X93439171Y-109172632D02*
X93439171Y-109458346D01*
X93439171Y-109458346D02*
X93510600Y-109601203D01*
X93510600Y-109601203D02*
X93582028Y-109672632D01*
X93582028Y-109672632D02*
X93724885Y-109744060D01*
X93724885Y-109744060D02*
X94153457Y-109744060D01*
X94153457Y-109744060D02*
X94296314Y-109672632D01*
X94296314Y-109672632D02*
X94367742Y-109601203D01*
X94367742Y-109601203D02*
X94439171Y-109458346D01*
X94439171Y-109458346D02*
X94439171Y-109172632D01*
X94439171Y-109172632D02*
X94367742Y-109029775D01*
X93439171Y-108386918D02*
X94939171Y-108386918D01*
X93439171Y-107744061D02*
X94224885Y-107744061D01*
X94224885Y-107744061D02*
X94367742Y-107815489D01*
X94367742Y-107815489D02*
X94439171Y-107958346D01*
X94439171Y-107958346D02*
X94439171Y-108172632D01*
X94439171Y-108172632D02*
X94367742Y-108315489D01*
X94367742Y-108315489D02*
X94296314Y-108386918D01*
X93439171Y-106815489D02*
X93510600Y-106958346D01*
X93510600Y-106958346D02*
X93582028Y-107029775D01*
X93582028Y-107029775D02*
X93724885Y-107101203D01*
X93724885Y-107101203D02*
X94153457Y-107101203D01*
X94153457Y-107101203D02*
X94296314Y-107029775D01*
X94296314Y-107029775D02*
X94367742Y-106958346D01*
X94367742Y-106958346D02*
X94439171Y-106815489D01*
X94439171Y-106815489D02*
X94439171Y-106601203D01*
X94439171Y-106601203D02*
X94367742Y-106458346D01*
X94367742Y-106458346D02*
X94296314Y-106386918D01*
X94296314Y-106386918D02*
X94153457Y-106315489D01*
X94153457Y-106315489D02*
X93724885Y-106315489D01*
X93724885Y-106315489D02*
X93582028Y-106386918D01*
X93582028Y-106386918D02*
X93510600Y-106458346D01*
X93510600Y-106458346D02*
X93439171Y-106601203D01*
X93439171Y-106601203D02*
X93439171Y-106815489D01*
X93439171Y-105458346D02*
X93510600Y-105601203D01*
X93510600Y-105601203D02*
X93653457Y-105672632D01*
X93653457Y-105672632D02*
X94939171Y-105672632D01*
X93510600Y-104958346D02*
X93439171Y-104815489D01*
X93439171Y-104815489D02*
X93439171Y-104529775D01*
X93439171Y-104529775D02*
X93510600Y-104386918D01*
X93510600Y-104386918D02*
X93653457Y-104315489D01*
X93653457Y-104315489D02*
X93724885Y-104315489D01*
X93724885Y-104315489D02*
X93867742Y-104386918D01*
X93867742Y-104386918D02*
X93939171Y-104529775D01*
X93939171Y-104529775D02*
X93939171Y-104744061D01*
X93939171Y-104744061D02*
X94010600Y-104886918D01*
X94010600Y-104886918D02*
X94153457Y-104958346D01*
X94153457Y-104958346D02*
X94224885Y-104958346D01*
X94224885Y-104958346D02*
X94367742Y-104886918D01*
X94367742Y-104886918D02*
X94439171Y-104744061D01*
X94439171Y-104744061D02*
X94439171Y-104529775D01*
X94439171Y-104529775D02*
X94367742Y-104386918D01*
X93439171Y-103458346D02*
X93510600Y-103601203D01*
X93510600Y-103601203D02*
X93582028Y-103672632D01*
X93582028Y-103672632D02*
X93724885Y-103744060D01*
X93724885Y-103744060D02*
X94153457Y-103744060D01*
X94153457Y-103744060D02*
X94296314Y-103672632D01*
X94296314Y-103672632D02*
X94367742Y-103601203D01*
X94367742Y-103601203D02*
X94439171Y-103458346D01*
X94439171Y-103458346D02*
X94439171Y-103244060D01*
X94439171Y-103244060D02*
X94367742Y-103101203D01*
X94367742Y-103101203D02*
X94296314Y-103029775D01*
X94296314Y-103029775D02*
X94153457Y-102958346D01*
X94153457Y-102958346D02*
X93724885Y-102958346D01*
X93724885Y-102958346D02*
X93582028Y-103029775D01*
X93582028Y-103029775D02*
X93510600Y-103101203D01*
X93510600Y-103101203D02*
X93439171Y-103244060D01*
X93439171Y-103244060D02*
X93439171Y-103458346D01*
X94439171Y-102315489D02*
X93439171Y-102315489D01*
X94296314Y-102315489D02*
X94367742Y-102244060D01*
X94367742Y-102244060D02*
X94439171Y-102101203D01*
X94439171Y-102101203D02*
X94439171Y-101886917D01*
X94439171Y-101886917D02*
X94367742Y-101744060D01*
X94367742Y-101744060D02*
X94224885Y-101672632D01*
X94224885Y-101672632D02*
X93439171Y-101672632D01*
X93582028Y-100958346D02*
X93510600Y-100886917D01*
X93510600Y-100886917D02*
X93439171Y-100958346D01*
X93439171Y-100958346D02*
X93510600Y-101029774D01*
X93510600Y-101029774D02*
X93582028Y-100958346D01*
X93582028Y-100958346D02*
X93439171Y-100958346D01*
X93510600Y-99601203D02*
X93439171Y-99744060D01*
X93439171Y-99744060D02*
X93439171Y-100029774D01*
X93439171Y-100029774D02*
X93510600Y-100172631D01*
X93510600Y-100172631D02*
X93582028Y-100244060D01*
X93582028Y-100244060D02*
X93724885Y-100315488D01*
X93724885Y-100315488D02*
X94153457Y-100315488D01*
X94153457Y-100315488D02*
X94296314Y-100244060D01*
X94296314Y-100244060D02*
X94367742Y-100172631D01*
X94367742Y-100172631D02*
X94439171Y-100029774D01*
X94439171Y-100029774D02*
X94439171Y-99744060D01*
X94439171Y-99744060D02*
X94367742Y-99601203D01*
X93439171Y-98744060D02*
X93510600Y-98886917D01*
X93510600Y-98886917D02*
X93582028Y-98958346D01*
X93582028Y-98958346D02*
X93724885Y-99029774D01*
X93724885Y-99029774D02*
X94153457Y-99029774D01*
X94153457Y-99029774D02*
X94296314Y-98958346D01*
X94296314Y-98958346D02*
X94367742Y-98886917D01*
X94367742Y-98886917D02*
X94439171Y-98744060D01*
X94439171Y-98744060D02*
X94439171Y-98529774D01*
X94439171Y-98529774D02*
X94367742Y-98386917D01*
X94367742Y-98386917D02*
X94296314Y-98315489D01*
X94296314Y-98315489D02*
X94153457Y-98244060D01*
X94153457Y-98244060D02*
X93724885Y-98244060D01*
X93724885Y-98244060D02*
X93582028Y-98315489D01*
X93582028Y-98315489D02*
X93510600Y-98386917D01*
X93510600Y-98386917D02*
X93439171Y-98529774D01*
X93439171Y-98529774D02*
X93439171Y-98744060D01*
X93439171Y-97601203D02*
X94439171Y-97601203D01*
X94296314Y-97601203D02*
X94367742Y-97529774D01*
X94367742Y-97529774D02*
X94439171Y-97386917D01*
X94439171Y-97386917D02*
X94439171Y-97172631D01*
X94439171Y-97172631D02*
X94367742Y-97029774D01*
X94367742Y-97029774D02*
X94224885Y-96958346D01*
X94224885Y-96958346D02*
X93439171Y-96958346D01*
X94224885Y-96958346D02*
X94367742Y-96886917D01*
X94367742Y-96886917D02*
X94439171Y-96744060D01*
X94439171Y-96744060D02*
X94439171Y-96529774D01*
X94439171Y-96529774D02*
X94367742Y-96386917D01*
X94367742Y-96386917D02*
X94224885Y-96315488D01*
X94224885Y-96315488D02*
X93439171Y-96315488D01*
X99249757Y-98558541D02*
X99178328Y-98415684D01*
X99178328Y-98415684D02*
X99178328Y-98201398D01*
X99178328Y-98201398D02*
X99249757Y-97987112D01*
X99249757Y-97987112D02*
X99392614Y-97844255D01*
X99392614Y-97844255D02*
X99535471Y-97772826D01*
X99535471Y-97772826D02*
X99821185Y-97701398D01*
X99821185Y-97701398D02*
X100035471Y-97701398D01*
X100035471Y-97701398D02*
X100321185Y-97772826D01*
X100321185Y-97772826D02*
X100464042Y-97844255D01*
X100464042Y-97844255D02*
X100606900Y-97987112D01*
X100606900Y-97987112D02*
X100678328Y-98201398D01*
X100678328Y-98201398D02*
X100678328Y-98344255D01*
X100678328Y-98344255D02*
X100606900Y-98558541D01*
X100606900Y-98558541D02*
X100535471Y-98629969D01*
X100535471Y-98629969D02*
X100035471Y-98629969D01*
X100035471Y-98629969D02*
X100035471Y-98344255D01*
X99178328Y-99487112D02*
X99535471Y-99487112D01*
X99392614Y-99129969D02*
X99535471Y-99487112D01*
X99535471Y-99487112D02*
X99392614Y-99844255D01*
X99821185Y-99272826D02*
X99535471Y-99487112D01*
X99535471Y-99487112D02*
X99821185Y-99701398D01*
X99178328Y-100629969D02*
X99535471Y-100629969D01*
X99392614Y-100272826D02*
X99535471Y-100629969D01*
X99535471Y-100629969D02*
X99392614Y-100987112D01*
X99821185Y-100415683D02*
X99535471Y-100629969D01*
X99535471Y-100629969D02*
X99821185Y-100844255D01*
X99178328Y-101772826D02*
X99535471Y-101772826D01*
X99392614Y-101415683D02*
X99535471Y-101772826D01*
X99535471Y-101772826D02*
X99392614Y-102129969D01*
X99821185Y-101558540D02*
X99535471Y-101772826D01*
X99535471Y-101772826D02*
X99821185Y-101987112D01*
D11*
X91443333Y-72944819D02*
X91443333Y-73659104D01*
X91443333Y-73659104D02*
X91490952Y-73801961D01*
X91490952Y-73801961D02*
X91586190Y-73897200D01*
X91586190Y-73897200D02*
X91729047Y-73944819D01*
X91729047Y-73944819D02*
X91824285Y-73944819D01*
X91014761Y-73040057D02*
X90967142Y-72992438D01*
X90967142Y-72992438D02*
X90871904Y-72944819D01*
X90871904Y-72944819D02*
X90633809Y-72944819D01*
X90633809Y-72944819D02*
X90538571Y-72992438D01*
X90538571Y-72992438D02*
X90490952Y-73040057D01*
X90490952Y-73040057D02*
X90443333Y-73135295D01*
X90443333Y-73135295D02*
X90443333Y-73230533D01*
X90443333Y-73230533D02*
X90490952Y-73373390D01*
X90490952Y-73373390D02*
X91062380Y-73944819D01*
X91062380Y-73944819D02*
X90443333Y-73944819D01*
X109223333Y-72944819D02*
X109223333Y-73659104D01*
X109223333Y-73659104D02*
X109270952Y-73801961D01*
X109270952Y-73801961D02*
X109366190Y-73897200D01*
X109366190Y-73897200D02*
X109509047Y-73944819D01*
X109509047Y-73944819D02*
X109604285Y-73944819D01*
X108842380Y-72944819D02*
X108223333Y-72944819D01*
X108223333Y-72944819D02*
X108556666Y-73325771D01*
X108556666Y-73325771D02*
X108413809Y-73325771D01*
X108413809Y-73325771D02*
X108318571Y-73373390D01*
X108318571Y-73373390D02*
X108270952Y-73421009D01*
X108270952Y-73421009D02*
X108223333Y-73516247D01*
X108223333Y-73516247D02*
X108223333Y-73754342D01*
X108223333Y-73754342D02*
X108270952Y-73849580D01*
X108270952Y-73849580D02*
X108318571Y-73897200D01*
X108318571Y-73897200D02*
X108413809Y-73944819D01*
X108413809Y-73944819D02*
X108699523Y-73944819D01*
X108699523Y-73944819D02*
X108794761Y-73897200D01*
X108794761Y-73897200D02*
X108842380Y-73849580D01*
D12*
%TO.C,G\u002A\u002A\u002A*%
G36*
X98055110Y-110557099D02*
G01*
X98060570Y-110594256D01*
X98064228Y-110651533D01*
X98065563Y-110722895D01*
X98065563Y-110890205D01*
X100489344Y-110890205D01*
X102913125Y-110890205D01*
X102913125Y-110798453D01*
X102913170Y-110787398D01*
X102915593Y-110738726D01*
X102922744Y-110713747D01*
X102936063Y-110706701D01*
X102938827Y-110706882D01*
X102950995Y-110716573D01*
X102957239Y-110745176D01*
X102959001Y-110798453D01*
X102959001Y-110890205D01*
X103472185Y-110890205D01*
X103616516Y-110890574D01*
X103747542Y-110891826D01*
X103849328Y-110893955D01*
X103921542Y-110896949D01*
X103963850Y-110900800D01*
X103975919Y-110905497D01*
X103958701Y-110909905D01*
X103912221Y-110913710D01*
X103837966Y-110916744D01*
X103737354Y-110918963D01*
X103611804Y-110920325D01*
X103462734Y-110920789D01*
X102959001Y-110920789D01*
X102959001Y-111257212D01*
X102959001Y-111593636D01*
X103479831Y-111593636D01*
X103631550Y-111594035D01*
X103762670Y-111595306D01*
X103864522Y-111597440D01*
X103936780Y-111600429D01*
X103979119Y-111604261D01*
X103991211Y-111608928D01*
X103991160Y-111609004D01*
X103972647Y-111613483D01*
X103924968Y-111617240D01*
X103849513Y-111620233D01*
X103747670Y-111622421D01*
X103620830Y-111623764D01*
X103470380Y-111624220D01*
X102959001Y-111624220D01*
X102959001Y-111769494D01*
X102958951Y-111790564D01*
X102957632Y-111852594D01*
X102953917Y-111890553D01*
X102946997Y-111909569D01*
X102936063Y-111914768D01*
X102932736Y-111914449D01*
X102922942Y-111906095D01*
X102916948Y-111882570D01*
X102913946Y-111838745D01*
X102913125Y-111769494D01*
X102913125Y-111624220D01*
X100489344Y-111624220D01*
X98065563Y-111624220D01*
X98065563Y-111868892D01*
X98065507Y-111894702D01*
X98064133Y-111986854D01*
X98061035Y-112055649D01*
X98056365Y-112098685D01*
X98050271Y-112113564D01*
X98048658Y-112112657D01*
X98042899Y-112090672D01*
X98038599Y-112041117D01*
X98035909Y-111966390D01*
X98034979Y-111868892D01*
X98034979Y-111624220D01*
X97453884Y-111624220D01*
X97397059Y-111624178D01*
X97239886Y-111623521D01*
X97109664Y-111622085D01*
X97007118Y-111619888D01*
X96932974Y-111616951D01*
X96887955Y-111613291D01*
X96872788Y-111608928D01*
X96874402Y-111607433D01*
X96899361Y-111603297D01*
X96953935Y-111599870D01*
X97037400Y-111597171D01*
X97149029Y-111595220D01*
X97288099Y-111594035D01*
X97453884Y-111593636D01*
X98034979Y-111593636D01*
X98034979Y-111257212D01*
X98034979Y-110920789D01*
X97469176Y-110920789D01*
X97426627Y-110920764D01*
X97269881Y-110920154D01*
X97139946Y-110918743D01*
X97037575Y-110916551D01*
X96963520Y-110913600D01*
X96918534Y-110909908D01*
X96903372Y-110905497D01*
X96904294Y-110904347D01*
X96926857Y-110900110D01*
X96979058Y-110896598D01*
X97060143Y-110893832D01*
X97169360Y-110891830D01*
X97305955Y-110890614D01*
X97469176Y-110890205D01*
X98034979Y-110890205D01*
X98034979Y-110713444D01*
X98035415Y-110661725D01*
X98038090Y-110595070D01*
X98043085Y-110556062D01*
X98050271Y-110546135D01*
X98055110Y-110557099D01*
G37*
G36*
X98055110Y-91136268D02*
G01*
X98060570Y-91173425D01*
X98064228Y-91230702D01*
X98065563Y-91302064D01*
X98065563Y-91469374D01*
X99617701Y-91469374D01*
X101169838Y-91469374D01*
X101172784Y-91373799D01*
X101175731Y-91278224D01*
X101181160Y-91373799D01*
X101186589Y-91469374D01*
X101529929Y-91469374D01*
X101873270Y-91469374D01*
X101873270Y-91377622D01*
X101874894Y-91336186D01*
X101880416Y-91299799D01*
X101888562Y-91285870D01*
X101895468Y-91295616D01*
X101901532Y-91328749D01*
X101903854Y-91377622D01*
X101903854Y-91469374D01*
X102240277Y-91469374D01*
X102576701Y-91469374D01*
X102576701Y-91377622D01*
X102578325Y-91336186D01*
X102583848Y-91299799D01*
X102591993Y-91285870D01*
X102598899Y-91295616D01*
X102604964Y-91328749D01*
X102607285Y-91377622D01*
X102607285Y-91469374D01*
X103310717Y-91469374D01*
X103483596Y-91469659D01*
X103643411Y-91470596D01*
X103775405Y-91472175D01*
X103879028Y-91474383D01*
X103953727Y-91477209D01*
X103998951Y-91480641D01*
X104014149Y-91484666D01*
X104001032Y-91488424D01*
X103957926Y-91491898D01*
X103885307Y-91494768D01*
X103783724Y-91497020D01*
X103653731Y-91498644D01*
X103495878Y-91499627D01*
X103310717Y-91499958D01*
X102607285Y-91499958D01*
X102607285Y-91836382D01*
X102607285Y-92172805D01*
X103318363Y-92172805D01*
X103498580Y-92173110D01*
X103658524Y-92174060D01*
X103790606Y-92175645D01*
X103894281Y-92177853D01*
X103969008Y-92180672D01*
X104014242Y-92184091D01*
X104029440Y-92188097D01*
X104015290Y-92191973D01*
X103971103Y-92195413D01*
X103897405Y-92198253D01*
X103794739Y-92200483D01*
X103663648Y-92202090D01*
X103504675Y-92203063D01*
X103318363Y-92203389D01*
X102607285Y-92203389D01*
X102607285Y-92348663D01*
X102607041Y-92377618D01*
X102604387Y-92439109D01*
X102599206Y-92479447D01*
X102591993Y-92493937D01*
X102588945Y-92491622D01*
X102582473Y-92466405D01*
X102578226Y-92417187D01*
X102576701Y-92348663D01*
X102576701Y-92203389D01*
X102240277Y-92203389D01*
X101903854Y-92203389D01*
X101903854Y-92348663D01*
X101903610Y-92377618D01*
X101900955Y-92439109D01*
X101895775Y-92479447D01*
X101888562Y-92493937D01*
X101885514Y-92491622D01*
X101879041Y-92466405D01*
X101874795Y-92417187D01*
X101873270Y-92348663D01*
X101873270Y-92203389D01*
X101529200Y-92203389D01*
X101185130Y-92203389D01*
X101181929Y-92352486D01*
X101178729Y-92501583D01*
X101173730Y-92352486D01*
X101168730Y-92203389D01*
X99617147Y-92203389D01*
X98065563Y-92203389D01*
X98065563Y-92448061D01*
X98065507Y-92473871D01*
X98064133Y-92566024D01*
X98061035Y-92634818D01*
X98056365Y-92677854D01*
X98050271Y-92692733D01*
X98048658Y-92691826D01*
X98042899Y-92669841D01*
X98038599Y-92620286D01*
X98035909Y-92545559D01*
X98034979Y-92448061D01*
X98034979Y-92203389D01*
X97453884Y-92203389D01*
X97397059Y-92203347D01*
X97239886Y-92202690D01*
X97109664Y-92201254D01*
X97007118Y-92199058D01*
X96932974Y-92196120D01*
X96887955Y-92192460D01*
X96872788Y-92188097D01*
X96874402Y-92186602D01*
X96899361Y-92182466D01*
X96953935Y-92179039D01*
X97037400Y-92176340D01*
X97149029Y-92174389D01*
X97288099Y-92173205D01*
X97453884Y-92172805D01*
X98034979Y-92172805D01*
X98034979Y-91836382D01*
X101185130Y-91836382D01*
X101185130Y-92172805D01*
X101529200Y-92172805D01*
X101873270Y-92172805D01*
X101873270Y-91836382D01*
X101873270Y-91499958D01*
X101529200Y-91499958D01*
X101185130Y-91499958D01*
X101185130Y-91836382D01*
X98034979Y-91836382D01*
X98034979Y-91499958D01*
X97469176Y-91499958D01*
X97426627Y-91499933D01*
X97269881Y-91499323D01*
X97139946Y-91497912D01*
X97037575Y-91495721D01*
X96963520Y-91492769D01*
X96918534Y-91489077D01*
X96903372Y-91484666D01*
X96904294Y-91483516D01*
X96926857Y-91479279D01*
X96979058Y-91475768D01*
X97060143Y-91473001D01*
X97169360Y-91470999D01*
X97305955Y-91469784D01*
X97469176Y-91469374D01*
X98034979Y-91469374D01*
X98034979Y-91292613D01*
X98035415Y-91240894D01*
X98038090Y-91174239D01*
X98043085Y-91135231D01*
X98050271Y-91125304D01*
X98055110Y-91136268D01*
G37*
G36*
X98052890Y-86395071D02*
G01*
X98058252Y-86422128D01*
X98062233Y-86476728D01*
X98064710Y-86556742D01*
X98065563Y-86660042D01*
X98065563Y-86927652D01*
X99617701Y-86927652D01*
X101169838Y-86927652D01*
X101172285Y-86877953D01*
X101174732Y-86828254D01*
X101180900Y-86877953D01*
X101187068Y-86927652D01*
X102066291Y-86927652D01*
X102212764Y-86927771D01*
X102405836Y-86928386D01*
X102569250Y-86929523D01*
X102702851Y-86931180D01*
X102806486Y-86933353D01*
X102880002Y-86936040D01*
X102923246Y-86939238D01*
X102936063Y-86942944D01*
X102926406Y-86945604D01*
X102887159Y-86948888D01*
X102818455Y-86951697D01*
X102720944Y-86954021D01*
X102595278Y-86955848D01*
X102442110Y-86957167D01*
X102262090Y-86957967D01*
X102055871Y-86958236D01*
X101185130Y-86958236D01*
X101185130Y-87294660D01*
X101185130Y-87631084D01*
X102064419Y-87631084D01*
X102217345Y-87631219D01*
X102407656Y-87631859D01*
X102569784Y-87633019D01*
X102703331Y-87634692D01*
X102807897Y-87636872D01*
X102883082Y-87639550D01*
X102928486Y-87642720D01*
X102943709Y-87646376D01*
X102935936Y-87649035D01*
X102899120Y-87652345D01*
X102832409Y-87655165D01*
X102736203Y-87657487D01*
X102610901Y-87659306D01*
X102456903Y-87660613D01*
X102274609Y-87661403D01*
X102064419Y-87661668D01*
X101185130Y-87661668D01*
X101185130Y-87865385D01*
X101185163Y-87884212D01*
X101186812Y-87976958D01*
X101191397Y-88046882D01*
X101199548Y-88100534D01*
X101211891Y-88144464D01*
X101238652Y-88219825D01*
X101242919Y-88017206D01*
X101243064Y-88010608D01*
X101245948Y-87931690D01*
X101250358Y-87869673D01*
X101255863Y-87829119D01*
X101262034Y-87814587D01*
X101264661Y-87823235D01*
X101267725Y-87858827D01*
X101270360Y-87918593D01*
X101272566Y-87998901D01*
X101274343Y-88096118D01*
X101275692Y-88206611D01*
X101276611Y-88326749D01*
X101277100Y-88452897D01*
X101277159Y-88581423D01*
X101276789Y-88708696D01*
X101275988Y-88831082D01*
X101274756Y-88944948D01*
X101273094Y-89046662D01*
X101271000Y-89132592D01*
X101268476Y-89199104D01*
X101265519Y-89242567D01*
X101262131Y-89259346D01*
X101258230Y-89257720D01*
X101251584Y-89233098D01*
X101246366Y-89183104D01*
X101243016Y-89111152D01*
X101238652Y-88953841D01*
X101211891Y-89029202D01*
X101209430Y-89036386D01*
X101197857Y-89081529D01*
X101190367Y-89137525D01*
X101186335Y-89210926D01*
X101185130Y-89308281D01*
X101185130Y-89511999D01*
X102065322Y-89511999D01*
X102212741Y-89512119D01*
X102405819Y-89512736D01*
X102569238Y-89513874D01*
X102702843Y-89515531D01*
X102806481Y-89517704D01*
X102880000Y-89520390D01*
X102923245Y-89523586D01*
X102936063Y-89527291D01*
X102926406Y-89529951D01*
X102887159Y-89533234D01*
X102818455Y-89536044D01*
X102720944Y-89538367D01*
X102595278Y-89540195D01*
X102442110Y-89541514D01*
X102262090Y-89542314D01*
X102055871Y-89542583D01*
X101185130Y-89542583D01*
X101185130Y-89879006D01*
X101185130Y-90215430D01*
X102065322Y-90215430D01*
X102212741Y-90215551D01*
X102405819Y-90216167D01*
X102569238Y-90217306D01*
X102702843Y-90218962D01*
X102806481Y-90221135D01*
X102880000Y-90223821D01*
X102923245Y-90227018D01*
X102936063Y-90230722D01*
X102926406Y-90233383D01*
X102887159Y-90236666D01*
X102818455Y-90239475D01*
X102720944Y-90241799D01*
X102595278Y-90243626D01*
X102442110Y-90244945D01*
X102262090Y-90245745D01*
X102055871Y-90246014D01*
X101185130Y-90246014D01*
X101181929Y-90395111D01*
X101178729Y-90544208D01*
X101173730Y-90395111D01*
X101168730Y-90246014D01*
X101085732Y-90246014D01*
X100863444Y-90246014D01*
X100558158Y-90246014D01*
X100554958Y-90395111D01*
X100551757Y-90544208D01*
X100546758Y-90395111D01*
X100541759Y-90246014D01*
X99558783Y-90246014D01*
X99342445Y-90246014D01*
X99303661Y-90246014D01*
X98142023Y-90246014D01*
X98065563Y-90246014D01*
X98065563Y-90490686D01*
X98065507Y-90516496D01*
X98064133Y-90608648D01*
X98061035Y-90677443D01*
X98056365Y-90720479D01*
X98050271Y-90735358D01*
X98048658Y-90734451D01*
X98042899Y-90712466D01*
X98038599Y-90662911D01*
X98035909Y-90588184D01*
X98034979Y-90490686D01*
X98034979Y-90246014D01*
X97438592Y-90246014D01*
X97367429Y-90245951D01*
X97209855Y-90245250D01*
X97079364Y-90243791D01*
X96976655Y-90241590D01*
X96902426Y-90238667D01*
X96857376Y-90235038D01*
X96842204Y-90230722D01*
X96844232Y-90229060D01*
X96870377Y-90224973D01*
X96926127Y-90221587D01*
X97010771Y-90218921D01*
X97123596Y-90216994D01*
X97263892Y-90215824D01*
X97430946Y-90215430D01*
X98019687Y-90215430D01*
X98019687Y-89879006D01*
X98019687Y-89542583D01*
X97446238Y-89542583D01*
X97396559Y-89542549D01*
X97239596Y-89541916D01*
X97109516Y-89540492D01*
X97007056Y-89538298D01*
X96932955Y-89535353D01*
X96887953Y-89531678D01*
X96872788Y-89527291D01*
X96874402Y-89525795D01*
X96899361Y-89521659D01*
X96953935Y-89518232D01*
X97037400Y-89515534D01*
X97149029Y-89513583D01*
X97288099Y-89512398D01*
X97453884Y-89511999D01*
X98034979Y-89511999D01*
X98065563Y-89511999D01*
X98142023Y-89511999D01*
X98169580Y-89511222D01*
X98204494Y-89507069D01*
X98217895Y-89500530D01*
X98214274Y-89490844D01*
X98198558Y-89458485D01*
X98173295Y-89409948D01*
X98141656Y-89351433D01*
X98066005Y-89213805D01*
X98065784Y-89362902D01*
X98065563Y-89511999D01*
X98034979Y-89511999D01*
X98034979Y-89308003D01*
X98034964Y-89295646D01*
X98033208Y-89196431D01*
X98027895Y-89117432D01*
X98026896Y-89110485D01*
X98018111Y-89049391D01*
X98002944Y-88983048D01*
X97998130Y-88963919D01*
X97981574Y-88875970D01*
X97970167Y-88770206D01*
X97963181Y-88640355D01*
X97962037Y-88605622D01*
X97960302Y-88518975D01*
X97960467Y-88510192D01*
X97994682Y-88510192D01*
X97994703Y-88598857D01*
X97996992Y-88686847D01*
X98001452Y-88768190D01*
X98007987Y-88836915D01*
X98016501Y-88887050D01*
X98026896Y-88912625D01*
X98028109Y-88909902D01*
X98030228Y-88883595D01*
X98031966Y-88833053D01*
X98033236Y-88762466D01*
X98033947Y-88676023D01*
X98034010Y-88577913D01*
X98034002Y-88575149D01*
X98033310Y-88461596D01*
X98031903Y-88376332D01*
X98029654Y-88317116D01*
X98026433Y-88281707D01*
X98022112Y-88267865D01*
X98016564Y-88273347D01*
X98009192Y-88299857D01*
X98001830Y-88354721D01*
X97997025Y-88426823D01*
X97994682Y-88510192D01*
X97960467Y-88510192D01*
X97961584Y-88450729D01*
X97966535Y-88391814D01*
X97975803Y-88333161D01*
X97990041Y-88265701D01*
X97993097Y-88251874D01*
X98011930Y-88145124D01*
X98021902Y-88048853D01*
X98065563Y-88048853D01*
X98065563Y-88585709D01*
X98065563Y-89122566D01*
X98161138Y-89313459D01*
X98256713Y-89504353D01*
X98799579Y-89508233D01*
X99342445Y-89512114D01*
X99330890Y-89506451D01*
X101001626Y-89506451D01*
X101009109Y-89508732D01*
X101039659Y-89511086D01*
X101085732Y-89511999D01*
X101169838Y-89511999D01*
X101169838Y-89366725D01*
X101169621Y-89329184D01*
X101168358Y-89273760D01*
X101166216Y-89235635D01*
X101163486Y-89221451D01*
X101162192Y-89222998D01*
X101157512Y-89228593D01*
X101139153Y-89257544D01*
X101111992Y-89303594D01*
X101079380Y-89361177D01*
X101055007Y-89405257D01*
X101027424Y-89455973D01*
X101008594Y-89491641D01*
X101001626Y-89506451D01*
X99330890Y-89506451D01*
X99200592Y-89442594D01*
X99094036Y-89381715D01*
X98964193Y-89279022D01*
X98855428Y-89157465D01*
X98769324Y-89020292D01*
X98707463Y-88870751D01*
X98671428Y-88712088D01*
X98663020Y-88551769D01*
X98694333Y-88551769D01*
X98695666Y-88653392D01*
X98703114Y-88747141D01*
X98716660Y-88821967D01*
X98726186Y-88854429D01*
X98785673Y-88994459D01*
X98870248Y-89125393D01*
X98975630Y-89242990D01*
X99097541Y-89343007D01*
X99231701Y-89421203D01*
X99373828Y-89473334D01*
X99376270Y-89473961D01*
X99458712Y-89488057D01*
X99558783Y-89495062D01*
X99664776Y-89494972D01*
X99764981Y-89487785D01*
X99847691Y-89473495D01*
X99876540Y-89465666D01*
X100011309Y-89414021D01*
X100134945Y-89338894D01*
X100253520Y-89236743D01*
X100310572Y-89176219D01*
X100411605Y-89040023D01*
X100483231Y-88895431D01*
X100525446Y-88742454D01*
X100538246Y-88581106D01*
X100521627Y-88411401D01*
X100490429Y-88284206D01*
X100437943Y-88158816D01*
X100362859Y-88042395D01*
X100261395Y-87927918D01*
X100254590Y-87921158D01*
X100140463Y-87821228D01*
X100025050Y-87747842D01*
X99902246Y-87698508D01*
X99765949Y-87670735D01*
X99740498Y-87669314D01*
X101004346Y-87669314D01*
X101083269Y-87814587D01*
X101162192Y-87959861D01*
X101166614Y-87816461D01*
X101167495Y-87781274D01*
X101167924Y-87724277D01*
X101166887Y-87683658D01*
X101164482Y-87666507D01*
X101157193Y-87664495D01*
X101126369Y-87663141D01*
X101081137Y-87664633D01*
X101074244Y-87665053D01*
X101004346Y-87669314D01*
X99740498Y-87669314D01*
X99610055Y-87662031D01*
X99461986Y-87669992D01*
X99322341Y-87697590D01*
X99197062Y-87747080D01*
X99080646Y-87820676D01*
X98967589Y-87920594D01*
X98962290Y-87925956D01*
X98852180Y-88056845D01*
X98769591Y-88196621D01*
X98715907Y-88342961D01*
X98710086Y-88369104D01*
X98699134Y-88453323D01*
X98694333Y-88551769D01*
X98663020Y-88551769D01*
X98662799Y-88547553D01*
X98683159Y-88380391D01*
X98692669Y-88339983D01*
X98748412Y-88183933D01*
X98830313Y-88039774D01*
X98935557Y-87911096D01*
X99061330Y-87801492D01*
X99204817Y-87714556D01*
X99311861Y-87661951D01*
X98784287Y-87665632D01*
X98256713Y-87669314D01*
X98161138Y-87859083D01*
X98065633Y-88048714D01*
X98065563Y-88048853D01*
X98021902Y-88048853D01*
X98024200Y-88026663D01*
X98030906Y-87887224D01*
X98037183Y-87661668D01*
X98065563Y-87661668D01*
X98065598Y-87803118D01*
X98065633Y-87944569D01*
X98142058Y-87808318D01*
X98164956Y-87767255D01*
X98192584Y-87716933D01*
X98211481Y-87681518D01*
X98218483Y-87666867D01*
X98213338Y-87664996D01*
X98185656Y-87662604D01*
X98142023Y-87661668D01*
X98065563Y-87661668D01*
X98037183Y-87661668D01*
X97439693Y-87661668D01*
X97367496Y-87661602D01*
X97209894Y-87660898D01*
X97079384Y-87659437D01*
X96976663Y-87657237D01*
X96902428Y-87654314D01*
X96857376Y-87650688D01*
X96842204Y-87646376D01*
X96844232Y-87644714D01*
X96870377Y-87640626D01*
X96926127Y-87637240D01*
X97010771Y-87634574D01*
X97123596Y-87632647D01*
X97263892Y-87631478D01*
X97430946Y-87631084D01*
X98019687Y-87631084D01*
X98019687Y-87294660D01*
X98019687Y-86962991D01*
X100007646Y-86962991D01*
X100013675Y-86966367D01*
X100041908Y-86975707D01*
X100085442Y-86987684D01*
X100090312Y-86989012D01*
X100136820Y-87005309D01*
X100201362Y-87031947D01*
X100276064Y-87065542D01*
X100353052Y-87102707D01*
X100542866Y-87197792D01*
X100545506Y-87112421D01*
X100548145Y-87027050D01*
X100556975Y-87122885D01*
X100565804Y-87218720D01*
X100680494Y-87314651D01*
X100694496Y-87326592D01*
X100761611Y-87388425D01*
X100830033Y-87457448D01*
X100886918Y-87520833D01*
X100978651Y-87631084D01*
X101074244Y-87631084D01*
X101169838Y-87631084D01*
X101169838Y-87294660D01*
X101169838Y-86958236D01*
X100588742Y-86958236D01*
X100567093Y-86958239D01*
X100438595Y-86958398D01*
X100320755Y-86958775D01*
X100216892Y-86959344D01*
X100130329Y-86960077D01*
X100064386Y-86960948D01*
X100022385Y-86961928D01*
X100007646Y-86962991D01*
X98019687Y-86962991D01*
X98019687Y-86958236D01*
X97446238Y-86958236D01*
X97396559Y-86958203D01*
X97239596Y-86957569D01*
X97109516Y-86956145D01*
X97007056Y-86953951D01*
X96932955Y-86951006D01*
X96887953Y-86947331D01*
X96872788Y-86942944D01*
X96874402Y-86941448D01*
X96899361Y-86937312D01*
X96953935Y-86933885D01*
X97037400Y-86931187D01*
X97149029Y-86929236D01*
X97288099Y-86928051D01*
X97453884Y-86927652D01*
X98034979Y-86927652D01*
X98034979Y-86660042D01*
X98035130Y-86614208D01*
X98036676Y-86520374D01*
X98039796Y-86450714D01*
X98044368Y-86407357D01*
X98050271Y-86392432D01*
X98052890Y-86395071D01*
G37*
G36*
X101171451Y-105814170D02*
G01*
X101177210Y-105836155D01*
X101181510Y-105885710D01*
X101184200Y-105960437D01*
X101185130Y-106057935D01*
X101185130Y-106302607D01*
X102072065Y-106302607D01*
X102232351Y-106302753D01*
X102422767Y-106303405D01*
X102584972Y-106304572D01*
X102718569Y-106306247D01*
X102823166Y-106308425D01*
X102898367Y-106311097D01*
X102943777Y-106314257D01*
X102959001Y-106317899D01*
X102950509Y-106320662D01*
X102912716Y-106323945D01*
X102845032Y-106326742D01*
X102747852Y-106329045D01*
X102621570Y-106330849D01*
X102466582Y-106332145D01*
X102283282Y-106332928D01*
X102072065Y-106333191D01*
X101185130Y-106333191D01*
X101185130Y-106669615D01*
X101185130Y-107006038D01*
X102055871Y-107006038D01*
X102207448Y-107006179D01*
X102394805Y-107006833D01*
X102555492Y-107008009D01*
X102688857Y-107009696D01*
X102794249Y-107011883D01*
X102871015Y-107014559D01*
X102918503Y-107017712D01*
X102936063Y-107021330D01*
X102930641Y-107023908D01*
X102897076Y-107027265D01*
X102833189Y-107030113D01*
X102739132Y-107032449D01*
X102615059Y-107034271D01*
X102461122Y-107035576D01*
X102277475Y-107036360D01*
X102064270Y-107036622D01*
X101183025Y-107036622D01*
X101188987Y-107277471D01*
X101190798Y-107336218D01*
X101197672Y-107457494D01*
X101208483Y-107554890D01*
X101223680Y-107633010D01*
X101239850Y-107720186D01*
X101250827Y-107838168D01*
X101254120Y-107967451D01*
X101249802Y-108098343D01*
X101237943Y-108221150D01*
X101218613Y-108326180D01*
X101213390Y-108347921D01*
X101199647Y-108417156D01*
X101197866Y-108431741D01*
X101190969Y-108488223D01*
X101186436Y-108570677D01*
X101185130Y-108674073D01*
X101185130Y-108886954D01*
X102072065Y-108886954D01*
X102232351Y-108887100D01*
X102422767Y-108887752D01*
X102584972Y-108888918D01*
X102718569Y-108890594D01*
X102823166Y-108892771D01*
X102898367Y-108895443D01*
X102943777Y-108898604D01*
X102959001Y-108902246D01*
X102950509Y-108905009D01*
X102912716Y-108908292D01*
X102845032Y-108911089D01*
X102747852Y-108913392D01*
X102621570Y-108915196D01*
X102466582Y-108916492D01*
X102283282Y-108917275D01*
X102072065Y-108917538D01*
X101185130Y-108917538D01*
X101185130Y-109253961D01*
X101185130Y-109590385D01*
X102055871Y-109590385D01*
X102207448Y-109590526D01*
X102394805Y-109591180D01*
X102555492Y-109592356D01*
X102688857Y-109594043D01*
X102794249Y-109596230D01*
X102871015Y-109598906D01*
X102918503Y-109602058D01*
X102936063Y-109605677D01*
X102930723Y-109608240D01*
X102897297Y-109611601D01*
X102833547Y-109614452D01*
X102739628Y-109616791D01*
X102615693Y-109618615D01*
X102461895Y-109619921D01*
X102278386Y-109620707D01*
X102065322Y-109620969D01*
X101185130Y-109620969D01*
X101185130Y-109888579D01*
X101184979Y-109934413D01*
X101183433Y-110028247D01*
X101180313Y-110097907D01*
X101175741Y-110141264D01*
X101169838Y-110156189D01*
X101167219Y-110153550D01*
X101161857Y-110126493D01*
X101157876Y-110071893D01*
X101155399Y-109991879D01*
X101154546Y-109888579D01*
X101154546Y-109620969D01*
X101078086Y-109620969D01*
X99908248Y-109620969D01*
X99602409Y-109620969D01*
X99574491Y-109620969D01*
X98050271Y-109620969D01*
X98050271Y-109666845D01*
X98050270Y-109667416D01*
X98045716Y-109699433D01*
X98034979Y-109712721D01*
X98034789Y-109712718D01*
X98024117Y-109699056D01*
X98019687Y-109666845D01*
X98019687Y-109620969D01*
X97461530Y-109620969D01*
X97426094Y-109620951D01*
X97269572Y-109620366D01*
X97139788Y-109618969D01*
X97037508Y-109616780D01*
X96963500Y-109613822D01*
X96918532Y-109610113D01*
X96903372Y-109605677D01*
X96904017Y-109604706D01*
X96925371Y-109600418D01*
X96976374Y-109596862D01*
X97056259Y-109594060D01*
X97164259Y-109592033D01*
X97299605Y-109590801D01*
X97461530Y-109590385D01*
X98019687Y-109590385D01*
X98019687Y-109253961D01*
X98019687Y-108917538D01*
X98050271Y-108917538D01*
X98050271Y-109253961D01*
X98050271Y-109590385D01*
X98627544Y-109590181D01*
X99204817Y-109589976D01*
X99081386Y-109547007D01*
X99061494Y-109539806D01*
X98984053Y-109508457D01*
X98899723Y-109470474D01*
X98823519Y-109432521D01*
X98785205Y-109412269D01*
X98734330Y-109385844D01*
X98698300Y-109367729D01*
X98683163Y-109361005D01*
X98681033Y-109366151D01*
X98678309Y-109393834D01*
X98677243Y-109437465D01*
X98676211Y-109465007D01*
X98670674Y-109500172D01*
X98661951Y-109513925D01*
X98654728Y-109502962D01*
X98648738Y-109468564D01*
X98646329Y-109418350D01*
X98645999Y-109322775D01*
X98560493Y-109261607D01*
X98549631Y-109253639D01*
X98488258Y-109203076D01*
X98422416Y-109141493D01*
X98359314Y-109076268D01*
X98306159Y-109014779D01*
X98270157Y-108964403D01*
X98268795Y-108962106D01*
X98251647Y-108937350D01*
X98231698Y-108924007D01*
X98199692Y-108918571D01*
X98146372Y-108917538D01*
X98126731Y-108917538D01*
X98050271Y-108917538D01*
X98019687Y-108917538D01*
X97453884Y-108917538D01*
X97411335Y-108917513D01*
X97254589Y-108916903D01*
X97124654Y-108915492D01*
X97022283Y-108913300D01*
X96948228Y-108910349D01*
X96903242Y-108906657D01*
X96888080Y-108902246D01*
X96889002Y-108901096D01*
X96911565Y-108896859D01*
X96963766Y-108893347D01*
X97044851Y-108890581D01*
X97154068Y-108888579D01*
X97290663Y-108887363D01*
X97453884Y-108886954D01*
X98019687Y-108886954D01*
X98050271Y-108886954D01*
X98126731Y-108886954D01*
X98154237Y-108886576D01*
X98189427Y-108884546D01*
X98203191Y-108881346D01*
X98199095Y-108871818D01*
X98183239Y-108839983D01*
X98158223Y-108791518D01*
X98127025Y-108732249D01*
X98056401Y-108599202D01*
X98050858Y-108588760D01*
X98050565Y-108737857D01*
X98050271Y-108886954D01*
X98019687Y-108886954D01*
X98018512Y-108676689D01*
X98017528Y-108613530D01*
X98013389Y-108522189D01*
X98006470Y-108451044D01*
X97997178Y-108405256D01*
X97989911Y-108384507D01*
X97983893Y-108373839D01*
X97979966Y-108380695D01*
X97977597Y-108408341D01*
X97976258Y-108460041D01*
X97975415Y-108539061D01*
X97973938Y-108612245D01*
X97970388Y-108677572D01*
X97965147Y-108719335D01*
X97958519Y-108734034D01*
X97958366Y-108734014D01*
X97954416Y-108717714D01*
X97951043Y-108671382D01*
X97948259Y-108595543D01*
X97946074Y-108490726D01*
X97944500Y-108357455D01*
X97943547Y-108196259D01*
X97943276Y-108036597D01*
X98682420Y-108036597D01*
X98683503Y-108086775D01*
X98686145Y-108114708D01*
X98692199Y-108139567D01*
X98711725Y-108214969D01*
X98729522Y-108273042D01*
X98748894Y-108323743D01*
X98773143Y-108377032D01*
X98838695Y-108489864D01*
X98940188Y-108612951D01*
X99062109Y-108718610D01*
X99199910Y-108803007D01*
X99349043Y-108862310D01*
X99391520Y-108872024D01*
X99476366Y-108882368D01*
X99574491Y-108886717D01*
X99675686Y-108885045D01*
X99769741Y-108877327D01*
X99846445Y-108863539D01*
X99893598Y-108849307D01*
X100022282Y-108791703D01*
X100146089Y-108710670D01*
X100258925Y-108611301D01*
X100354697Y-108498691D01*
X100427313Y-108377932D01*
X100484656Y-108228145D01*
X100516727Y-108067572D01*
X100520487Y-107906903D01*
X100496459Y-107749476D01*
X100445169Y-107598629D01*
X100367138Y-107457698D01*
X100262891Y-107330022D01*
X100192101Y-107263339D01*
X100062079Y-107169080D01*
X99922737Y-107103203D01*
X99771412Y-107064584D01*
X99653832Y-107055737D01*
X99901528Y-107055737D01*
X99904345Y-107057786D01*
X99927790Y-107070402D01*
X99969783Y-107091492D01*
X100024021Y-107117858D01*
X100108437Y-107164498D01*
X100236369Y-107261844D01*
X100347643Y-107381423D01*
X100438891Y-107519370D01*
X100506748Y-107671823D01*
X100521987Y-107717827D01*
X100535972Y-107770679D01*
X100544113Y-107823418D01*
X100547848Y-107886263D01*
X100548614Y-107969434D01*
X100548146Y-108021994D01*
X100545234Y-108093590D01*
X100538411Y-108150964D01*
X100526233Y-108204414D01*
X100507254Y-108264240D01*
X100465141Y-108366867D01*
X100381718Y-108510233D01*
X100276963Y-108638547D01*
X100154922Y-108747103D01*
X100019644Y-108831195D01*
X99908248Y-108886907D01*
X100427965Y-108883107D01*
X100947681Y-108879308D01*
X100947789Y-108879143D01*
X101001626Y-108879143D01*
X101006774Y-108881953D01*
X101034456Y-108885548D01*
X101078086Y-108886954D01*
X101154546Y-108886954D01*
X101154546Y-108739131D01*
X101154308Y-108698663D01*
X101153072Y-108644771D01*
X101151018Y-108609040D01*
X101148416Y-108597680D01*
X101144010Y-108604601D01*
X101127542Y-108633922D01*
X101102404Y-108680338D01*
X101071956Y-108737692D01*
X101052515Y-108774940D01*
X101026297Y-108826334D01*
X101008307Y-108863134D01*
X101001626Y-108879143D01*
X100947789Y-108879143D01*
X100997734Y-108802848D01*
X100998949Y-108800980D01*
X101030764Y-108746747D01*
X101066033Y-108678911D01*
X101097343Y-108611698D01*
X101146900Y-108497008D01*
X101151300Y-107981227D01*
X101151466Y-107961788D01*
X101188371Y-107961788D01*
X101188496Y-108034451D01*
X101189389Y-108130289D01*
X101191200Y-108197821D01*
X101194002Y-108238458D01*
X101197866Y-108253611D01*
X101202865Y-108244690D01*
X101209004Y-108206732D01*
X101213761Y-108143837D01*
X101216702Y-108064992D01*
X101217814Y-107977702D01*
X101217087Y-107889471D01*
X101214507Y-107807804D01*
X101210064Y-107740205D01*
X101203744Y-107694178D01*
X101202383Y-107688409D01*
X101197636Y-107676661D01*
X101194013Y-107685054D01*
X101191395Y-107715675D01*
X101189662Y-107770613D01*
X101188694Y-107851955D01*
X101188371Y-107961788D01*
X101151466Y-107961788D01*
X101155701Y-107465447D01*
X101147092Y-107444709D01*
X101106368Y-107346610D01*
X101104664Y-107342526D01*
X101073015Y-107271570D01*
X101037561Y-107198974D01*
X101005660Y-107139843D01*
X100960565Y-107062662D01*
X100996328Y-107062662D01*
X101011878Y-107090313D01*
X101012902Y-107091708D01*
X101031822Y-107121912D01*
X101058382Y-107169194D01*
X101087174Y-107223949D01*
X101092228Y-107233826D01*
X101117544Y-107281219D01*
X101137128Y-107314566D01*
X101147092Y-107327170D01*
X101149018Y-107322220D01*
X101151862Y-107293311D01*
X101153818Y-107244323D01*
X101154546Y-107181896D01*
X101154546Y-107036622D01*
X101078988Y-107036622D01*
X101033955Y-107038243D01*
X101002693Y-107046100D01*
X100996328Y-107062662D01*
X100960565Y-107062662D01*
X100954285Y-107051914D01*
X100427444Y-107051914D01*
X100325422Y-107051987D01*
X100210212Y-107052257D01*
X100108186Y-107052703D01*
X100022825Y-107053299D01*
X99957609Y-107054020D01*
X99916016Y-107054841D01*
X99901528Y-107055737D01*
X99653832Y-107055737D01*
X99605442Y-107052096D01*
X99498823Y-107056418D01*
X99353240Y-107080041D01*
X99222160Y-107126228D01*
X99099797Y-107197232D01*
X98980366Y-107295303D01*
X98957323Y-107317397D01*
X98860664Y-107425816D01*
X98786217Y-107541743D01*
X98727310Y-107675192D01*
X98723076Y-107687020D01*
X98702634Y-107758243D01*
X98690334Y-107835609D01*
X98684138Y-107931204D01*
X98682985Y-107972475D01*
X98682420Y-108036597D01*
X97943276Y-108036597D01*
X97943227Y-108007664D01*
X97943228Y-108000360D01*
X97943571Y-107812748D01*
X97944546Y-107652554D01*
X97946143Y-107520305D01*
X97948350Y-107416528D01*
X97951155Y-107341749D01*
X97954549Y-107296496D01*
X97958519Y-107281294D01*
X97962392Y-107285328D01*
X97968646Y-107313991D01*
X97972949Y-107366389D01*
X97974834Y-107438037D01*
X97975857Y-107594780D01*
X97997540Y-107525966D01*
X97999559Y-107519059D01*
X98010442Y-107456560D01*
X98017111Y-107365368D01*
X98019455Y-107246887D01*
X98019524Y-107184445D01*
X98050271Y-107184445D01*
X98050509Y-107224913D01*
X98051745Y-107278805D01*
X98053799Y-107314536D01*
X98056401Y-107325896D01*
X98060218Y-107320253D01*
X98075830Y-107292818D01*
X98099246Y-107249505D01*
X98126747Y-107197448D01*
X98154611Y-107143779D01*
X98179120Y-107095632D01*
X98196553Y-107060139D01*
X98203191Y-107044433D01*
X98198044Y-107041623D01*
X98170361Y-107038028D01*
X98126731Y-107036622D01*
X98050271Y-107036622D01*
X98050271Y-107184445D01*
X98019524Y-107184445D01*
X98019687Y-107036622D01*
X97438592Y-107036622D01*
X97381767Y-107036580D01*
X97224594Y-107035923D01*
X97094372Y-107034487D01*
X96991826Y-107032291D01*
X96917682Y-107029353D01*
X96872663Y-107025693D01*
X96857496Y-107021330D01*
X96859110Y-107019835D01*
X96884069Y-107015699D01*
X96938643Y-107012272D01*
X97022108Y-107009573D01*
X97133737Y-107007622D01*
X97272807Y-107006438D01*
X97438592Y-107006038D01*
X98019687Y-107006038D01*
X98019687Y-106669615D01*
X98019687Y-106333191D01*
X97438592Y-106333191D01*
X97381767Y-106333148D01*
X97224594Y-106332491D01*
X97094372Y-106331055D01*
X96991826Y-106328859D01*
X96917682Y-106325921D01*
X96872663Y-106322261D01*
X96857496Y-106317899D01*
X96859110Y-106316403D01*
X96884069Y-106312267D01*
X96938643Y-106308840D01*
X97022108Y-106306142D01*
X97133737Y-106304191D01*
X97272807Y-106303006D01*
X97438592Y-106302607D01*
X98019687Y-106302607D01*
X98019687Y-106157333D01*
X98019931Y-106128378D01*
X98022585Y-106066887D01*
X98027766Y-106026549D01*
X98034979Y-106012059D01*
X98038027Y-106014374D01*
X98044500Y-106039591D01*
X98048746Y-106088809D01*
X98050271Y-106157333D01*
X98050271Y-106302607D01*
X98348465Y-106302607D01*
X98646659Y-106302607D01*
X98646659Y-106157333D01*
X98646903Y-106128378D01*
X98649557Y-106066887D01*
X98654738Y-106026549D01*
X98661951Y-106012059D01*
X98664999Y-106014374D01*
X98671472Y-106039591D01*
X98675718Y-106088809D01*
X98677243Y-106157333D01*
X98677243Y-106302607D01*
X99915894Y-106302607D01*
X101154546Y-106302607D01*
X101154546Y-106057935D01*
X101154603Y-106032125D01*
X101155977Y-105939973D01*
X101159074Y-105871178D01*
X101163744Y-105828142D01*
X101169838Y-105813263D01*
X101171451Y-105814170D01*
G37*
G36*
X101181282Y-96970668D02*
G01*
X101185852Y-97234455D01*
X101873631Y-97234455D01*
X101882071Y-97234455D01*
X102045322Y-97234565D01*
X102180640Y-97234936D01*
X102290557Y-97235650D01*
X102377606Y-97236794D01*
X102444316Y-97238451D01*
X102493220Y-97240706D01*
X102526850Y-97243643D01*
X102547737Y-97247347D01*
X102558413Y-97251902D01*
X102561409Y-97257393D01*
X102561403Y-97257691D01*
X102558084Y-97263131D01*
X102546959Y-97267641D01*
X102525499Y-97271304D01*
X102491172Y-97274205D01*
X102441446Y-97276429D01*
X102373792Y-97278058D01*
X102285679Y-97279179D01*
X102174574Y-97279875D01*
X102037948Y-97280231D01*
X101873270Y-97280331D01*
X101185130Y-97280331D01*
X101185130Y-97609109D01*
X101185130Y-97937887D01*
X101750934Y-97937887D01*
X101762887Y-97937887D01*
X101908820Y-97938034D01*
X102027159Y-97938519D01*
X102120688Y-97939453D01*
X102192191Y-97940950D01*
X102244451Y-97943122D01*
X102280252Y-97946083D01*
X102302377Y-97949945D01*
X102313611Y-97954821D01*
X102316737Y-97960825D01*
X102316723Y-97961309D01*
X102313093Y-97967225D01*
X102301149Y-97972023D01*
X102278109Y-97975815D01*
X102241187Y-97978713D01*
X102187600Y-97980832D01*
X102114566Y-97982284D01*
X102019299Y-97983181D01*
X101899016Y-97983636D01*
X101750934Y-97983763D01*
X101185130Y-97983763D01*
X101185142Y-98178736D01*
X101185401Y-98229509D01*
X101187608Y-98306407D01*
X101192742Y-98363939D01*
X101201608Y-98409420D01*
X101215011Y-98450168D01*
X101244867Y-98526628D01*
X101245583Y-98362239D01*
X101246255Y-98316597D01*
X101249371Y-98253405D01*
X101254618Y-98212434D01*
X101261590Y-98197851D01*
X101262320Y-98198329D01*
X101266123Y-98218894D01*
X101269369Y-98269454D01*
X101272047Y-98349513D01*
X101274147Y-98458573D01*
X101275660Y-98596140D01*
X101276575Y-98761716D01*
X101276882Y-98954804D01*
X101276872Y-98990947D01*
X101276457Y-99179204D01*
X101275435Y-99339861D01*
X101273818Y-99472420D01*
X101271615Y-99576386D01*
X101268836Y-99651261D01*
X101265491Y-99696551D01*
X101261590Y-99711758D01*
X101255202Y-99697308D01*
X101250130Y-99655374D01*
X101246693Y-99589066D01*
X101245134Y-99501493D01*
X101244796Y-99454885D01*
X101243676Y-99386895D01*
X101241618Y-99344604D01*
X101238242Y-99324804D01*
X101233169Y-99324283D01*
X101226019Y-99339830D01*
X101224988Y-99342590D01*
X101209423Y-99378583D01*
X101196599Y-99399723D01*
X101195636Y-99401388D01*
X101191522Y-99425923D01*
X101188185Y-99473706D01*
X101185947Y-99538711D01*
X101185130Y-99614909D01*
X101185130Y-99818802D01*
X101865624Y-99818802D01*
X102028077Y-99818901D01*
X102163946Y-99819260D01*
X102274299Y-99819963D01*
X102361683Y-99821096D01*
X102428641Y-99822746D01*
X102477718Y-99824997D01*
X102511460Y-99827937D01*
X102532411Y-99831650D01*
X102543115Y-99836222D01*
X102546117Y-99841740D01*
X102543167Y-99847216D01*
X102532537Y-99851796D01*
X102511682Y-99855515D01*
X102478056Y-99858461D01*
X102429116Y-99860718D01*
X102362316Y-99862372D01*
X102275111Y-99863510D01*
X102164958Y-99864216D01*
X102029310Y-99864577D01*
X101865624Y-99864678D01*
X101185130Y-99864678D01*
X101185130Y-100193456D01*
X101185130Y-100522233D01*
X101865624Y-100522233D01*
X102028077Y-100522333D01*
X102163946Y-100522691D01*
X102274299Y-100523394D01*
X102361683Y-100524528D01*
X102428641Y-100526177D01*
X102477718Y-100528429D01*
X102511460Y-100531369D01*
X102532411Y-100535082D01*
X102543115Y-100539654D01*
X102546117Y-100545171D01*
X102543167Y-100550647D01*
X102532537Y-100555227D01*
X102511682Y-100558947D01*
X102478056Y-100561893D01*
X102429116Y-100564150D01*
X102362316Y-100565804D01*
X102275111Y-100566941D01*
X102164958Y-100567647D01*
X102029310Y-100568008D01*
X101865624Y-100568109D01*
X101185130Y-100568109D01*
X101181724Y-100808958D01*
X101178319Y-101049807D01*
X101173690Y-100808958D01*
X101169061Y-100568109D01*
X101083973Y-100568109D01*
X100863610Y-100568109D01*
X100558158Y-100568109D01*
X100554958Y-100717206D01*
X100551757Y-100866303D01*
X100546758Y-100717206D01*
X100541759Y-100568109D01*
X100537830Y-100568109D01*
X99670704Y-100568109D01*
X99617147Y-100568109D01*
X98692535Y-100568109D01*
X98692535Y-100704835D01*
X98692198Y-100733558D01*
X98689291Y-100790802D01*
X98684044Y-100832450D01*
X98677243Y-100851011D01*
X98674698Y-100851306D01*
X98667753Y-100833144D01*
X98663436Y-100786861D01*
X98661951Y-100714286D01*
X98661951Y-100568109D01*
X98363757Y-100568109D01*
X98257040Y-100568109D01*
X98142023Y-100568109D01*
X98065563Y-100568109D01*
X98065563Y-100704835D01*
X98065227Y-100733558D01*
X98062319Y-100790802D01*
X98057073Y-100832450D01*
X98050271Y-100851011D01*
X98047726Y-100851306D01*
X98040781Y-100833144D01*
X98036464Y-100786861D01*
X98034979Y-100714286D01*
X98034979Y-100568109D01*
X97170982Y-100568109D01*
X96306984Y-100568109D01*
X96306984Y-100698091D01*
X96306043Y-100762144D01*
X96302533Y-100802324D01*
X96295514Y-100822524D01*
X96284046Y-100828073D01*
X96272743Y-100822737D01*
X96265652Y-100802848D01*
X96262087Y-100763075D01*
X96261108Y-100698091D01*
X96261108Y-100568109D01*
X96115834Y-100568109D01*
X96094764Y-100568059D01*
X96032735Y-100566740D01*
X95994775Y-100563025D01*
X95975760Y-100556106D01*
X95970560Y-100545171D01*
X95970880Y-100541845D01*
X95979233Y-100532050D01*
X96002759Y-100526057D01*
X96046583Y-100523054D01*
X96115834Y-100522233D01*
X96261108Y-100522233D01*
X96261108Y-100193456D01*
X96261108Y-99864678D01*
X96115834Y-99864678D01*
X96094764Y-99864627D01*
X96032735Y-99863308D01*
X95994775Y-99859594D01*
X95975760Y-99852674D01*
X95970560Y-99841740D01*
X95970880Y-99838413D01*
X95979233Y-99828619D01*
X96002759Y-99822625D01*
X96046583Y-99819623D01*
X96115834Y-99818802D01*
X96261108Y-99818802D01*
X96261108Y-99665882D01*
X96261217Y-99634058D01*
X96262690Y-99573533D01*
X96266482Y-99536529D01*
X96273350Y-99518015D01*
X96284046Y-99512962D01*
X96288820Y-99513686D01*
X96297899Y-99523504D01*
X96303449Y-99548790D01*
X96306226Y-99594572D01*
X96306984Y-99665882D01*
X96306984Y-99818802D01*
X97170982Y-99818802D01*
X98034979Y-99818802D01*
X98065563Y-99818802D01*
X98142023Y-99818802D01*
X98169533Y-99818300D01*
X98204720Y-99815604D01*
X98218483Y-99811353D01*
X98214568Y-99801729D01*
X98198763Y-99769733D01*
X98173641Y-99721265D01*
X98142236Y-99662257D01*
X98066150Y-99520909D01*
X98065988Y-99520608D01*
X98065776Y-99669705D01*
X98065563Y-99818802D01*
X98034979Y-99818802D01*
X98034304Y-99616183D01*
X98033673Y-99565578D01*
X98029649Y-99469862D01*
X98022386Y-99391515D01*
X98012399Y-99337104D01*
X97991168Y-99260644D01*
X97990135Y-99425033D01*
X97989364Y-99470942D01*
X97986118Y-99533944D01*
X97980793Y-99574847D01*
X97973811Y-99589422D01*
X97973791Y-99589422D01*
X97969807Y-99574075D01*
X97966405Y-99528686D01*
X97963597Y-99453789D01*
X97961392Y-99349918D01*
X97959804Y-99217606D01*
X97958842Y-99057387D01*
X97958529Y-98875770D01*
X98698202Y-98875770D01*
X98700772Y-98995388D01*
X98715445Y-99100078D01*
X98721754Y-99126314D01*
X98775583Y-99277365D01*
X98856849Y-99416113D01*
X98966403Y-99544060D01*
X99032203Y-99605145D01*
X99141274Y-99686063D01*
X99257494Y-99745494D01*
X99389789Y-99788593D01*
X99510969Y-99810961D01*
X99670704Y-99815125D01*
X99737818Y-99805102D01*
X101008613Y-99805102D01*
X101012344Y-99814700D01*
X101035625Y-99818273D01*
X101083973Y-99818802D01*
X101169838Y-99818802D01*
X101169838Y-99681174D01*
X101169678Y-99650459D01*
X101168457Y-99595612D01*
X101166296Y-99557700D01*
X101163508Y-99543546D01*
X101162451Y-99544183D01*
X101162192Y-99544543D01*
X101149922Y-99561578D01*
X101127704Y-99597937D01*
X101099805Y-99646767D01*
X101096670Y-99652400D01*
X101065813Y-99707078D01*
X101038482Y-99754302D01*
X101020270Y-99784395D01*
X101018915Y-99786501D01*
X101008613Y-99805102D01*
X99737818Y-99805102D01*
X99826467Y-99791863D01*
X99975049Y-99742952D01*
X100113241Y-99670165D01*
X100237833Y-99575279D01*
X100345616Y-99460068D01*
X100433379Y-99326306D01*
X100497913Y-99175769D01*
X100504725Y-99153597D01*
X100530564Y-99021028D01*
X100536964Y-98878111D01*
X100524042Y-98735968D01*
X100491915Y-98605721D01*
X100454889Y-98513973D01*
X100373182Y-98371221D01*
X100270000Y-98246546D01*
X100148200Y-98142650D01*
X100010636Y-98062235D01*
X99860165Y-98008003D01*
X99795050Y-97995565D01*
X99748613Y-97991409D01*
X101005629Y-97991409D01*
X101083911Y-98129037D01*
X101162192Y-98266665D01*
X101166638Y-98130934D01*
X101167417Y-98102669D01*
X101167974Y-98046287D01*
X101166967Y-98005835D01*
X101164506Y-97988626D01*
X101157422Y-97986629D01*
X101126816Y-97985241D01*
X101081778Y-97986728D01*
X101073715Y-97987224D01*
X101005629Y-97991409D01*
X99748613Y-97991409D01*
X99692869Y-97986420D01*
X99582107Y-97985311D01*
X99474617Y-97992256D01*
X99382252Y-98007273D01*
X99336258Y-98020002D01*
X99218816Y-98066868D01*
X99103481Y-98131053D01*
X99002623Y-98206081D01*
X98976841Y-98230140D01*
X98903528Y-98313273D01*
X98834478Y-98410952D01*
X98776695Y-98512586D01*
X98737180Y-98607585D01*
X98727095Y-98643370D01*
X98707166Y-98754128D01*
X98698202Y-98875770D01*
X97958529Y-98875770D01*
X97958519Y-98869796D01*
X97958814Y-98686470D01*
X97959746Y-98524098D01*
X97961310Y-98391278D01*
X97963504Y-98288215D01*
X97966321Y-98215115D01*
X97969759Y-98172181D01*
X97973811Y-98159621D01*
X97979348Y-98174040D01*
X97984732Y-98214257D01*
X97988542Y-98274143D01*
X97990267Y-98347850D01*
X97990634Y-98394615D01*
X97991669Y-98453617D01*
X97993724Y-98487500D01*
X97997403Y-98499731D01*
X98003308Y-98493777D01*
X98012041Y-98473106D01*
X98016261Y-98459537D01*
X98025503Y-98402206D01*
X98031382Y-98315901D01*
X98033816Y-98201674D01*
X98034979Y-97983763D01*
X98065563Y-97983763D01*
X98065857Y-98132860D01*
X98066150Y-98281957D01*
X98142317Y-98138468D01*
X98166904Y-98091846D01*
X98193576Y-98040433D01*
X98211760Y-98004333D01*
X98218483Y-97989371D01*
X98213338Y-97987353D01*
X98185655Y-97984772D01*
X98142023Y-97983763D01*
X98065563Y-97983763D01*
X98034979Y-97983763D01*
X97966165Y-97983763D01*
X97936979Y-97982830D01*
X97906357Y-97975943D01*
X97897351Y-97960825D01*
X97900149Y-97951096D01*
X97920809Y-97940889D01*
X97966165Y-97937887D01*
X98034979Y-97937887D01*
X98034979Y-97609109D01*
X98065563Y-97609109D01*
X98065563Y-97937887D01*
X98161301Y-97937887D01*
X98257040Y-97937887D01*
X98325690Y-97851846D01*
X98353665Y-97819270D01*
X98406713Y-97763801D01*
X98468585Y-97703918D01*
X98531963Y-97646414D01*
X98589533Y-97598077D01*
X98633977Y-97565700D01*
X98637218Y-97563528D01*
X98649860Y-97549036D01*
X98657387Y-97523712D01*
X98661012Y-97480984D01*
X98661951Y-97414280D01*
X98661951Y-97395100D01*
X98692535Y-97395100D01*
X98692535Y-97509868D01*
X98818694Y-97441847D01*
X98830409Y-97435640D01*
X98911153Y-97396625D01*
X99000962Y-97358033D01*
X99082481Y-97327394D01*
X99210645Y-97284154D01*
X100023168Y-97284154D01*
X100026892Y-97286185D01*
X100052975Y-97295781D01*
X100098500Y-97310971D01*
X100156973Y-97329551D01*
X100165185Y-97332164D01*
X100247521Y-97362685D01*
X100335589Y-97401340D01*
X100411671Y-97440418D01*
X100439381Y-97456195D01*
X100488363Y-97483659D01*
X100523244Y-97502631D01*
X100537830Y-97509711D01*
X100538300Y-97509212D01*
X100540618Y-97490403D01*
X100542249Y-97449848D01*
X100542866Y-97395021D01*
X100542866Y-97280331D01*
X100558158Y-97280331D01*
X100558418Y-97406490D01*
X100558677Y-97532649D01*
X100680223Y-97627659D01*
X100699852Y-97643460D01*
X100768062Y-97703721D01*
X100835370Y-97769893D01*
X100889680Y-97830278D01*
X100977591Y-97937887D01*
X101073715Y-97937887D01*
X101169838Y-97937887D01*
X101169838Y-97609109D01*
X101169838Y-97280331D01*
X100863998Y-97280331D01*
X100558158Y-97280331D01*
X100542866Y-97280331D01*
X100282902Y-97280331D01*
X100214620Y-97280466D01*
X100138240Y-97280982D01*
X100077565Y-97281818D01*
X100037555Y-97282900D01*
X100023168Y-97284154D01*
X99210645Y-97284154D01*
X99220109Y-97280961D01*
X98956322Y-97280646D01*
X98692535Y-97280331D01*
X98692535Y-97395100D01*
X98661951Y-97395100D01*
X98661951Y-97280331D01*
X98363757Y-97280331D01*
X98065563Y-97280331D01*
X98065563Y-97609109D01*
X98034979Y-97609109D01*
X98034979Y-97280331D01*
X97943227Y-97280331D01*
X97932172Y-97280286D01*
X97883501Y-97277863D01*
X97858522Y-97270712D01*
X97851475Y-97257393D01*
X97851656Y-97254629D01*
X97861347Y-97242461D01*
X97889951Y-97236217D01*
X97943227Y-97234455D01*
X98034979Y-97234455D01*
X98034979Y-97089181D01*
X98035223Y-97060227D01*
X98037877Y-96998736D01*
X98043058Y-96958397D01*
X98050271Y-96943907D01*
X98053319Y-96946222D01*
X98059792Y-96971439D01*
X98064038Y-97020657D01*
X98065563Y-97089181D01*
X98065563Y-97234455D01*
X98363757Y-97234455D01*
X98661951Y-97234455D01*
X98661951Y-97089181D01*
X98662195Y-97060227D01*
X98664849Y-96998736D01*
X98670030Y-96958397D01*
X98677243Y-96943907D01*
X98680291Y-96946222D01*
X98686764Y-96971439D01*
X98691010Y-97020657D01*
X98692535Y-97089181D01*
X98692535Y-97234455D01*
X99617701Y-97234455D01*
X100542866Y-97234455D01*
X100546135Y-97062420D01*
X100549404Y-96890385D01*
X100554282Y-97062420D01*
X100559160Y-97234455D01*
X100864499Y-97234455D01*
X101169838Y-97234455D01*
X101173275Y-96970668D01*
X101176712Y-96706881D01*
X101181282Y-96970668D01*
G37*
G36*
X99810543Y-82398434D02*
G01*
X100028755Y-82436817D01*
X100235871Y-82503686D01*
X100431722Y-82598976D01*
X100616140Y-82722622D01*
X100788956Y-82874560D01*
X100899061Y-82994573D01*
X101027536Y-83170189D01*
X101129117Y-83356808D01*
X101202246Y-83551877D01*
X101204782Y-83560408D01*
X101225142Y-83620542D01*
X101242035Y-83652901D01*
X101256570Y-83659688D01*
X101262123Y-83659418D01*
X101269320Y-83670498D01*
X101273850Y-83699772D01*
X101276206Y-83751360D01*
X101276882Y-83829387D01*
X101276882Y-84006881D01*
X101475678Y-84006881D01*
X101488315Y-84006889D01*
X101567396Y-84007552D01*
X101621028Y-84009654D01*
X101653736Y-84013718D01*
X101670043Y-84020266D01*
X101674474Y-84029819D01*
X101674407Y-84031277D01*
X101668662Y-84040402D01*
X101650441Y-84046590D01*
X101615219Y-84050364D01*
X101558472Y-84052246D01*
X101475678Y-84052757D01*
X101276882Y-84052757D01*
X101276882Y-84511517D01*
X101276882Y-84970277D01*
X101926791Y-84970277D01*
X102576701Y-84970277D01*
X102576701Y-84878525D01*
X102578325Y-84837089D01*
X102583848Y-84800702D01*
X102591993Y-84786773D01*
X102598899Y-84796519D01*
X102604964Y-84829653D01*
X102607285Y-84878525D01*
X102607285Y-84970277D01*
X103318363Y-84970277D01*
X103498580Y-84970581D01*
X103658524Y-84971531D01*
X103790606Y-84973116D01*
X103894281Y-84975324D01*
X103969008Y-84978143D01*
X104014242Y-84981562D01*
X104029440Y-84985569D01*
X104015290Y-84989444D01*
X103971103Y-84992884D01*
X103897405Y-84995725D01*
X103794739Y-84997954D01*
X103663648Y-84999561D01*
X103504675Y-85000534D01*
X103318363Y-85000861D01*
X102607285Y-85000861D01*
X102607285Y-85337285D01*
X102607285Y-85673708D01*
X103318363Y-85673708D01*
X103498580Y-85674013D01*
X103658524Y-85674963D01*
X103790606Y-85676548D01*
X103894281Y-85678756D01*
X103969008Y-85681575D01*
X104014242Y-85684994D01*
X104029440Y-85689000D01*
X104015290Y-85692876D01*
X103971103Y-85696316D01*
X103897405Y-85699156D01*
X103794739Y-85701386D01*
X103663648Y-85702993D01*
X103504675Y-85703966D01*
X103318363Y-85704292D01*
X102607285Y-85704292D01*
X102607285Y-85849566D01*
X102607041Y-85878521D01*
X102604387Y-85940012D01*
X102599206Y-85980350D01*
X102591993Y-85994840D01*
X102588945Y-85992525D01*
X102582473Y-85967308D01*
X102578226Y-85918090D01*
X102576701Y-85849566D01*
X102576701Y-85704292D01*
X101926791Y-85704292D01*
X101276882Y-85704292D01*
X101276882Y-85841920D01*
X101276882Y-85979548D01*
X101428899Y-85979548D01*
X101470002Y-85980090D01*
X101529438Y-85983117D01*
X101571812Y-85988247D01*
X101590368Y-85994840D01*
X101589706Y-85998441D01*
X101566890Y-86004828D01*
X101515901Y-86008779D01*
X101438350Y-86010132D01*
X101276882Y-86010132D01*
X101276882Y-86063654D01*
X101276750Y-86070678D01*
X101271697Y-86103733D01*
X101261590Y-86117176D01*
X101259583Y-86116714D01*
X101250139Y-86099031D01*
X101246298Y-86063654D01*
X101246298Y-86010132D01*
X100904025Y-86010132D01*
X100902228Y-86010132D01*
X100558158Y-86010132D01*
X100558158Y-86063654D01*
X100558026Y-86070678D01*
X100552974Y-86103733D01*
X100542866Y-86117176D01*
X100540859Y-86116714D01*
X100531415Y-86099031D01*
X100527574Y-86063654D01*
X100527574Y-86010132D01*
X100419628Y-86010132D01*
X100366113Y-86008577D01*
X100329725Y-86003351D01*
X100321132Y-85994840D01*
X100337743Y-85987523D01*
X100376878Y-85981757D01*
X100429079Y-85979548D01*
X100527574Y-85979548D01*
X100527574Y-85841920D01*
X100527574Y-85704292D01*
X99610055Y-85704292D01*
X99544205Y-85704292D01*
X98692535Y-85704292D01*
X98692535Y-85849566D01*
X98692291Y-85878521D01*
X98689637Y-85940012D01*
X98684456Y-85980350D01*
X98677243Y-85994840D01*
X98674195Y-85992525D01*
X98667722Y-85967308D01*
X98663476Y-85918090D01*
X98661951Y-85849566D01*
X98661951Y-85704292D01*
X98363757Y-85704292D01*
X98065563Y-85704292D01*
X98065563Y-85849566D01*
X98065320Y-85878521D01*
X98062665Y-85940012D01*
X98057484Y-85980350D01*
X98050271Y-85994840D01*
X98047224Y-85992525D01*
X98040751Y-85967308D01*
X98036505Y-85918090D01*
X98034979Y-85849566D01*
X98034979Y-85704292D01*
X97606804Y-85704292D01*
X97537520Y-85704168D01*
X97411295Y-85703121D01*
X97311177Y-85701040D01*
X97238283Y-85697967D01*
X97193727Y-85693940D01*
X97178628Y-85689000D01*
X97182105Y-85686526D01*
X97211434Y-85682018D01*
X97269684Y-85678442D01*
X97355740Y-85675839D01*
X97468485Y-85674248D01*
X97606804Y-85673708D01*
X98034979Y-85673708D01*
X98034979Y-85337285D01*
X98034792Y-85237863D01*
X98033983Y-85150578D01*
X98032305Y-85087164D01*
X98029515Y-85044054D01*
X98025370Y-85017679D01*
X98019627Y-85004471D01*
X98012041Y-85000861D01*
X98065563Y-85000861D01*
X98065563Y-85337285D01*
X98065563Y-85673708D01*
X98363757Y-85673708D01*
X98661951Y-85673708D01*
X98661951Y-85552147D01*
X98692535Y-85552147D01*
X98692535Y-85673708D01*
X98963968Y-85672919D01*
X99235401Y-85672129D01*
X99072448Y-85613900D01*
X99026246Y-85596568D01*
X98942617Y-85561944D01*
X98863423Y-85525633D01*
X98801015Y-85493129D01*
X98692535Y-85430586D01*
X98692535Y-85552147D01*
X98661951Y-85552147D01*
X98661951Y-85537383D01*
X98661951Y-85401057D01*
X98586004Y-85345307D01*
X98583487Y-85343436D01*
X98546564Y-85312754D01*
X98499519Y-85269513D01*
X98446988Y-85218491D01*
X98393608Y-85164466D01*
X98344018Y-85112217D01*
X98302855Y-85066522D01*
X98274756Y-85032158D01*
X98264359Y-85013905D01*
X98251381Y-85007480D01*
X98215581Y-85002691D01*
X98164961Y-85000861D01*
X98142023Y-85000861D01*
X98065563Y-85000861D01*
X98012041Y-85000861D01*
X98003876Y-85003611D01*
X97996482Y-85017702D01*
X97991969Y-85048076D01*
X97989716Y-85099495D01*
X97989103Y-85176719D01*
X97988512Y-85231728D01*
X97985623Y-85296404D01*
X97980616Y-85337918D01*
X97973811Y-85352577D01*
X97969028Y-85345779D01*
X97963404Y-85312552D01*
X97959794Y-85254968D01*
X97958519Y-85176719D01*
X97958519Y-85000861D01*
X97415654Y-85000861D01*
X97394390Y-85000854D01*
X97238340Y-85000322D01*
X97108871Y-84998953D01*
X97006783Y-84996771D01*
X96932874Y-84993798D01*
X96887942Y-84990056D01*
X96872788Y-84985569D01*
X96873025Y-84984970D01*
X96891933Y-84980574D01*
X96940518Y-84976927D01*
X97017981Y-84974051D01*
X97123524Y-84971969D01*
X97256348Y-84970704D01*
X97415654Y-84970277D01*
X97958519Y-84970277D01*
X97958519Y-84716436D01*
X97990048Y-84716436D01*
X97990178Y-84810240D01*
X97991315Y-84878248D01*
X97993763Y-84924358D01*
X97997830Y-84952467D01*
X98003820Y-84966474D01*
X98012041Y-84970277D01*
X98065563Y-84970277D01*
X98142023Y-84970277D01*
X98145782Y-84970171D01*
X99877664Y-84970171D01*
X100202619Y-84970224D01*
X100527574Y-84970277D01*
X100527211Y-84645322D01*
X100526848Y-84320367D01*
X100490883Y-84407816D01*
X100439420Y-84514815D01*
X100360867Y-84630806D01*
X100258631Y-84739867D01*
X100156509Y-84821583D01*
X100018955Y-84901036D01*
X99877664Y-84970171D01*
X98145782Y-84970171D01*
X98169580Y-84969500D01*
X98204494Y-84965347D01*
X98217895Y-84958808D01*
X98214274Y-84949122D01*
X98198558Y-84916763D01*
X98173295Y-84868226D01*
X98141656Y-84809711D01*
X98066005Y-84672083D01*
X98065784Y-84821180D01*
X98065563Y-84970277D01*
X98012041Y-84970277D01*
X98015207Y-84969926D01*
X98023602Y-84962576D01*
X98029277Y-84942329D01*
X98032708Y-84904765D01*
X98034372Y-84845465D01*
X98034747Y-84760012D01*
X98034674Y-84740276D01*
X98031664Y-84625858D01*
X98024347Y-84538942D01*
X98012832Y-84480933D01*
X98012520Y-84479943D01*
X98009797Y-84471934D01*
X98004970Y-84457738D01*
X97999415Y-84447947D01*
X97995529Y-84453599D01*
X97992984Y-84477722D01*
X97991453Y-84523344D01*
X97990610Y-84593493D01*
X97990126Y-84691198D01*
X97990048Y-84716436D01*
X97958519Y-84716436D01*
X97958519Y-84511517D01*
X97958519Y-84052757D01*
X98692535Y-84052757D01*
X98693751Y-84110102D01*
X98695040Y-84140197D01*
X98718942Y-84284720D01*
X98770113Y-84424876D01*
X98845813Y-84556548D01*
X98943300Y-84675619D01*
X99059833Y-84777972D01*
X99192672Y-84859489D01*
X99265037Y-84893169D01*
X99355153Y-84925807D01*
X99444871Y-84945071D01*
X99544205Y-84952914D01*
X99663170Y-84951290D01*
X99705605Y-84949107D01*
X99792713Y-84941127D01*
X99862293Y-84928251D01*
X99923540Y-84908985D01*
X99990999Y-84880043D01*
X100129081Y-84798904D01*
X100251264Y-84696512D01*
X100354636Y-84576563D01*
X100436284Y-84442752D01*
X100493298Y-84298777D01*
X100522766Y-84148332D01*
X100531997Y-84052757D01*
X99612266Y-84052757D01*
X99610055Y-84052757D01*
X98692535Y-84052757D01*
X97958519Y-84052757D01*
X97506131Y-84052757D01*
X97486763Y-84052753D01*
X97356055Y-84052420D01*
X97252964Y-84051475D01*
X97174871Y-84049805D01*
X97119158Y-84047300D01*
X97083206Y-84043845D01*
X97064396Y-84039330D01*
X97060109Y-84033642D01*
X97065838Y-84029049D01*
X97087072Y-84023975D01*
X97126208Y-84019866D01*
X97185782Y-84016591D01*
X97268332Y-84014021D01*
X97376391Y-84012025D01*
X97512497Y-84010473D01*
X97958519Y-84006419D01*
X97958519Y-83955450D01*
X97990052Y-83955450D01*
X97990725Y-83988170D01*
X97997018Y-84003240D01*
X98009797Y-84006881D01*
X98063592Y-84006881D01*
X98362771Y-84006881D01*
X98661951Y-84006881D01*
X98661951Y-83948926D01*
X98692535Y-83948926D01*
X98692535Y-84006881D01*
X99610055Y-84006881D01*
X100527574Y-84006881D01*
X100527348Y-83957182D01*
X100524833Y-83924866D01*
X100516379Y-83869444D01*
X100504064Y-83809662D01*
X100495940Y-83778300D01*
X100441132Y-83637368D01*
X100360591Y-83505438D01*
X100258052Y-83386340D01*
X100137247Y-83283907D01*
X100001910Y-83201969D01*
X99855774Y-83144357D01*
X99837296Y-83139528D01*
X99755775Y-83126681D01*
X99658126Y-83120720D01*
X99555032Y-83121648D01*
X99457174Y-83129469D01*
X99375236Y-83144186D01*
X99343847Y-83152993D01*
X99200809Y-83211408D01*
X99067740Y-83295038D01*
X98948679Y-83399860D01*
X98847661Y-83521849D01*
X98768725Y-83656984D01*
X98715907Y-83801239D01*
X98706867Y-83840483D01*
X98696551Y-83901124D01*
X98692535Y-83948926D01*
X98661951Y-83948926D01*
X98661951Y-83609289D01*
X98662001Y-83568038D01*
X98662916Y-83443056D01*
X98664946Y-83343693D01*
X98668042Y-83271187D01*
X98672157Y-83226776D01*
X98677243Y-83211698D01*
X98679716Y-83214016D01*
X98685149Y-83240295D01*
X98689206Y-83294091D01*
X98691759Y-83373217D01*
X98692679Y-83475485D01*
X98692824Y-83739271D01*
X98752788Y-83616935D01*
X98805888Y-83523250D01*
X98907481Y-83392895D01*
X99030285Y-83281095D01*
X99170387Y-83191212D01*
X99323872Y-83126605D01*
X99324435Y-83126425D01*
X99450523Y-83097521D01*
X99588933Y-83084939D01*
X99727192Y-83089065D01*
X99852825Y-83110283D01*
X99917456Y-83129847D01*
X100063796Y-83195471D01*
X100198584Y-83285504D01*
X100317405Y-83396108D01*
X100415844Y-83523445D01*
X100489487Y-83663678D01*
X100491169Y-83667766D01*
X100510400Y-83712924D01*
X100521198Y-83732391D01*
X100525991Y-83728820D01*
X100527211Y-83704864D01*
X100527282Y-83701120D01*
X100532358Y-83668542D01*
X100542866Y-83655165D01*
X100547650Y-83661963D01*
X100553274Y-83695190D01*
X100556883Y-83752774D01*
X100558158Y-83831023D01*
X100558158Y-84006881D01*
X100904025Y-84006881D01*
X101249891Y-84006881D01*
X101238881Y-83888368D01*
X101229386Y-83811253D01*
X101196373Y-83648432D01*
X101148009Y-83487244D01*
X101088150Y-83341680D01*
X101070010Y-83305459D01*
X100961452Y-83127058D01*
X100828597Y-82960998D01*
X100675477Y-82810871D01*
X100506123Y-82680269D01*
X100324564Y-82572785D01*
X100134830Y-82492011D01*
X100085344Y-82476458D01*
X99935578Y-82442931D01*
X99770822Y-82422553D01*
X99600544Y-82415840D01*
X99434207Y-82423307D01*
X99281277Y-82445471D01*
X99116531Y-82489045D01*
X98914943Y-82569514D01*
X98726227Y-82675815D01*
X98553028Y-82805902D01*
X98397988Y-82957731D01*
X98263750Y-83129257D01*
X98152956Y-83318435D01*
X98073209Y-83478694D01*
X98068401Y-83742788D01*
X98063592Y-84006881D01*
X98009797Y-84006881D01*
X98018812Y-84004943D01*
X98027052Y-83993658D01*
X98031740Y-83967606D01*
X98033677Y-83921521D01*
X98033665Y-83850138D01*
X98033415Y-83826395D01*
X98031913Y-83766131D01*
X98029117Y-83733190D01*
X98024679Y-83725070D01*
X98018251Y-83739271D01*
X98009903Y-83777058D01*
X98001278Y-83833564D01*
X97994384Y-83896014D01*
X97994134Y-83898860D01*
X97990052Y-83955450D01*
X97958519Y-83955450D01*
X97958519Y-83699908D01*
X97958809Y-83623938D01*
X97960455Y-83525234D01*
X97963528Y-83455027D01*
X97967992Y-83414003D01*
X97973811Y-83402848D01*
X97976060Y-83405574D01*
X97982922Y-83431855D01*
X97987979Y-83478478D01*
X97990267Y-83537555D01*
X97990920Y-83590920D01*
X97992436Y-83628308D01*
X97995761Y-83641523D01*
X98001945Y-83634028D01*
X98012041Y-83609289D01*
X98015320Y-83599188D01*
X98024679Y-83548317D01*
X98031092Y-83476574D01*
X98033816Y-83391379D01*
X98034628Y-83345359D01*
X98037929Y-83282436D01*
X98043285Y-83241560D01*
X98050271Y-83226990D01*
X98056936Y-83235762D01*
X98063271Y-83267680D01*
X98065819Y-83314919D01*
X98066074Y-83402848D01*
X98135669Y-83272866D01*
X98226142Y-83122690D01*
X98362263Y-82946825D01*
X98518214Y-82792389D01*
X98691792Y-82660785D01*
X98880793Y-82553420D01*
X99083013Y-82471700D01*
X99296251Y-82417030D01*
X99518303Y-82390815D01*
X99581403Y-82388599D01*
X99810543Y-82398434D01*
G37*
G36*
X99766959Y-92708752D02*
G01*
X99983804Y-92743324D01*
X100196037Y-92806647D01*
X100400947Y-92898791D01*
X100434933Y-92916334D01*
X100487189Y-92940995D01*
X100525882Y-92956262D01*
X100544449Y-92959365D01*
X100551021Y-92958023D01*
X100558158Y-92972974D01*
X100558163Y-92973326D01*
X100570337Y-92996664D01*
X100598892Y-93021746D01*
X100620035Y-93037014D01*
X100662321Y-93071214D01*
X100706739Y-93110297D01*
X100773851Y-93172159D01*
X100902561Y-93044118D01*
X100902758Y-93043922D01*
X100953548Y-92995157D01*
X100996803Y-92956900D01*
X101027947Y-92932976D01*
X101042405Y-92927210D01*
X101036684Y-92941615D01*
X101012811Y-92972719D01*
X100974603Y-93015928D01*
X100925892Y-93066657D01*
X100798246Y-93194970D01*
X100876998Y-93283328D01*
X100885199Y-93292596D01*
X100921045Y-93334855D01*
X100946236Y-93367437D01*
X100955750Y-93383925D01*
X100955834Y-93384413D01*
X100971803Y-93390352D01*
X101010034Y-93394564D01*
X101062794Y-93396165D01*
X101169838Y-93396165D01*
X101173340Y-93071210D01*
X101176842Y-92746255D01*
X101181290Y-93071210D01*
X101185738Y-93396165D01*
X102049432Y-93396165D01*
X102187365Y-93396278D01*
X102377452Y-93396894D01*
X102539420Y-93398040D01*
X102672860Y-93399708D01*
X102777361Y-93401891D01*
X102852512Y-93404582D01*
X102897903Y-93407773D01*
X102913125Y-93411457D01*
X102906703Y-93413903D01*
X102871854Y-93417268D01*
X102807101Y-93420135D01*
X102712854Y-93422496D01*
X102589523Y-93424346D01*
X102437518Y-93425676D01*
X102257250Y-93426479D01*
X102049127Y-93426749D01*
X101185130Y-93426749D01*
X101186315Y-93637014D01*
X101186803Y-93685685D01*
X101189374Y-93769717D01*
X101194596Y-93832977D01*
X101203149Y-93882104D01*
X101215714Y-93923739D01*
X101243927Y-94000199D01*
X101245113Y-93766996D01*
X101245233Y-93749288D01*
X101246993Y-93659089D01*
X101250434Y-93591294D01*
X101255363Y-93548621D01*
X101261590Y-93533793D01*
X101261693Y-93533805D01*
X101265095Y-93549318D01*
X101268081Y-93591735D01*
X101270651Y-93657478D01*
X101272803Y-93742971D01*
X101274535Y-93844638D01*
X101275846Y-93958903D01*
X101276736Y-94082189D01*
X101277202Y-94210920D01*
X101277243Y-94341520D01*
X101276858Y-94470412D01*
X101276046Y-94594019D01*
X101274806Y-94708767D01*
X101273136Y-94811078D01*
X101271035Y-94897376D01*
X101268501Y-94964084D01*
X101265534Y-95007627D01*
X101262131Y-95024428D01*
X101258230Y-95022801D01*
X101251584Y-94998179D01*
X101246366Y-94948185D01*
X101243016Y-94876233D01*
X101238652Y-94718922D01*
X101211891Y-94794283D01*
X101209430Y-94801467D01*
X101197857Y-94846610D01*
X101190367Y-94902606D01*
X101186335Y-94976007D01*
X101185130Y-95073362D01*
X101185130Y-95277080D01*
X102055871Y-95277080D01*
X102207448Y-95277221D01*
X102394805Y-95277874D01*
X102555492Y-95279050D01*
X102688857Y-95280738D01*
X102794249Y-95282925D01*
X102871015Y-95285600D01*
X102918503Y-95288753D01*
X102936063Y-95292372D01*
X102930723Y-95294934D01*
X102897297Y-95298295D01*
X102833547Y-95301147D01*
X102739628Y-95303486D01*
X102615693Y-95305310D01*
X102461895Y-95306616D01*
X102278386Y-95307401D01*
X102065322Y-95307664D01*
X101185130Y-95307664D01*
X101185130Y-95644088D01*
X101185130Y-95980512D01*
X101902951Y-95980512D01*
X101912052Y-95980512D01*
X102095208Y-95980869D01*
X102252944Y-95981864D01*
X102384400Y-95983482D01*
X102488715Y-95985702D01*
X102565031Y-95988508D01*
X102612487Y-95991881D01*
X102630223Y-95995804D01*
X102617786Y-95999819D01*
X102574985Y-96003247D01*
X102502009Y-96006061D01*
X102399061Y-96008257D01*
X102266342Y-96009831D01*
X102104055Y-96010779D01*
X101912402Y-96011096D01*
X101185130Y-96011096D01*
X101181905Y-96167839D01*
X101178680Y-96324581D01*
X101173724Y-96167839D01*
X101168768Y-96011096D01*
X101085653Y-96011096D01*
X100863463Y-96011096D01*
X100558158Y-96011096D01*
X100554933Y-96167839D01*
X100551708Y-96324581D01*
X100546752Y-96167839D01*
X100541796Y-96011096D01*
X99617097Y-96011096D01*
X99303680Y-96011096D01*
X98715720Y-96011096D01*
X98670272Y-96011096D01*
X98142023Y-96011096D01*
X98065563Y-96011096D01*
X98065563Y-96255767D01*
X98065507Y-96281577D01*
X98064133Y-96373730D01*
X98061035Y-96442524D01*
X98056365Y-96485561D01*
X98050271Y-96500439D01*
X98048658Y-96499532D01*
X98042899Y-96477548D01*
X98038599Y-96427992D01*
X98035909Y-96353266D01*
X98034979Y-96255767D01*
X98034879Y-96189127D01*
X98033296Y-96105580D01*
X98027964Y-96049819D01*
X98027333Y-96048170D01*
X98016601Y-96020117D01*
X97996923Y-96014748D01*
X97966647Y-96031985D01*
X97923490Y-96070103D01*
X97865168Y-96127376D01*
X97825026Y-96165915D01*
X97783129Y-96202734D01*
X97753012Y-96225171D01*
X97739393Y-96229403D01*
X97739218Y-96225681D01*
X97752066Y-96203224D01*
X97781059Y-96167748D01*
X97821614Y-96125071D01*
X97836509Y-96110170D01*
X97875379Y-96069544D01*
X97902471Y-96038581D01*
X97912643Y-96023043D01*
X97903731Y-96020841D01*
X97867737Y-96018200D01*
X97807392Y-96015857D01*
X97726206Y-96013895D01*
X97627691Y-96012394D01*
X97515357Y-96011434D01*
X97392716Y-96011096D01*
X97392564Y-96011096D01*
X97237282Y-96010649D01*
X97108328Y-96009329D01*
X97006553Y-96007159D01*
X96932805Y-96004165D01*
X96887934Y-96000371D01*
X96872788Y-95995804D01*
X96873086Y-95995134D01*
X96892450Y-95990759D01*
X96941486Y-95987129D01*
X97019401Y-95984267D01*
X97125402Y-95982196D01*
X97258696Y-95980936D01*
X97418491Y-95980512D01*
X97452508Y-95980511D01*
X97589746Y-95980440D01*
X97700243Y-95980127D01*
X97787148Y-95979392D01*
X97853613Y-95978053D01*
X97902788Y-95975931D01*
X97937586Y-95972866D01*
X98019687Y-95972866D01*
X98027333Y-95980512D01*
X98034979Y-95972866D01*
X98027333Y-95965220D01*
X98019687Y-95972866D01*
X97937586Y-95972866D01*
X97937824Y-95972845D01*
X97961871Y-95968616D01*
X97978080Y-95963063D01*
X97989602Y-95956005D01*
X97999587Y-95947262D01*
X98006620Y-95940449D01*
X98016930Y-95927747D01*
X98024379Y-95910937D01*
X98029433Y-95885608D01*
X98032556Y-95847346D01*
X98034212Y-95791739D01*
X98034865Y-95714374D01*
X98034979Y-95610838D01*
X98034979Y-95307664D01*
X97453884Y-95307664D01*
X97397059Y-95307621D01*
X97239886Y-95306965D01*
X97109664Y-95305528D01*
X97007118Y-95303332D01*
X96932974Y-95300394D01*
X96887955Y-95296735D01*
X96872788Y-95292372D01*
X96874459Y-95290852D01*
X96899589Y-95286723D01*
X96954333Y-95283302D01*
X97037968Y-95280609D01*
X97149770Y-95278661D01*
X97289017Y-95277478D01*
X97454985Y-95277080D01*
X98037183Y-95277080D01*
X98065563Y-95277080D01*
X98142023Y-95277080D01*
X98169533Y-95276579D01*
X98204720Y-95273882D01*
X98218483Y-95269632D01*
X98214568Y-95260007D01*
X98198763Y-95228011D01*
X98173641Y-95179543D01*
X98142236Y-95120535D01*
X98065988Y-94978886D01*
X98065776Y-95127983D01*
X98065563Y-95277080D01*
X98037183Y-95277080D01*
X98030906Y-95051523D01*
X98030298Y-95031414D01*
X98024827Y-94930634D01*
X98022909Y-94895303D01*
X98009823Y-94778936D01*
X97990041Y-94673046D01*
X97984676Y-94648897D01*
X97972176Y-94585399D01*
X97964427Y-94527669D01*
X97960778Y-94466637D01*
X97960579Y-94393234D01*
X97961807Y-94348479D01*
X97994525Y-94348479D01*
X97995270Y-94435695D01*
X97998205Y-94515810D01*
X98003395Y-94581933D01*
X98010903Y-94627170D01*
X98015021Y-94641918D01*
X98020634Y-94657373D01*
X98024827Y-94658841D01*
X98027820Y-94643556D01*
X98029833Y-94608752D01*
X98031086Y-94551662D01*
X98031800Y-94469520D01*
X98032193Y-94359560D01*
X98032225Y-94345156D01*
X98032079Y-94234433D01*
X98031086Y-94151686D01*
X98029125Y-94094577D01*
X98026073Y-94060771D01*
X98021808Y-94047931D01*
X98016209Y-94053721D01*
X98012180Y-94066436D01*
X98004799Y-94113140D01*
X97999353Y-94180310D01*
X97995908Y-94261053D01*
X97994525Y-94348479D01*
X97961807Y-94348479D01*
X97963181Y-94298392D01*
X97964491Y-94264739D01*
X97972471Y-94141233D01*
X97985046Y-94040310D01*
X98002944Y-93955699D01*
X98004876Y-93948310D01*
X98019415Y-93882231D01*
X98025229Y-93839025D01*
X98065563Y-93839025D01*
X98066112Y-94363080D01*
X98066660Y-94887134D01*
X98109953Y-94986532D01*
X98133986Y-95038440D01*
X98172260Y-95114093D01*
X98209535Y-95181505D01*
X98265824Y-95277080D01*
X98468048Y-95277080D01*
X98670272Y-95277080D01*
X98715720Y-95277080D01*
X99029082Y-95276002D01*
X99129000Y-95275493D01*
X99207366Y-95274540D01*
X99260992Y-95272922D01*
X99292878Y-95270393D01*
X99306023Y-95266709D01*
X99303426Y-95261626D01*
X99288087Y-95254899D01*
X99285144Y-95253810D01*
X99154137Y-95192774D01*
X99029855Y-95108135D01*
X98950524Y-95045428D01*
X98948763Y-95044036D01*
X98832242Y-95160558D01*
X98715720Y-95277080D01*
X101001469Y-95277080D01*
X101085653Y-95277080D01*
X101169838Y-95277080D01*
X101169838Y-95128748D01*
X101169308Y-95087196D01*
X101166696Y-95035355D01*
X101164528Y-95018910D01*
X101162392Y-95002707D01*
X101156944Y-94994943D01*
X101150883Y-95003731D01*
X101131729Y-95036033D01*
X101104433Y-95084759D01*
X101072760Y-95143275D01*
X101001469Y-95277080D01*
X98715720Y-95277080D01*
X98670272Y-95277080D01*
X98798346Y-95148337D01*
X98926420Y-95019595D01*
X98926349Y-95019512D01*
X98983083Y-95019512D01*
X98986071Y-95026539D01*
X99008379Y-95050251D01*
X99047003Y-95082184D01*
X99095390Y-95117126D01*
X99146985Y-95149862D01*
X99165021Y-95160143D01*
X99309218Y-95223977D01*
X99461414Y-95261955D01*
X99617097Y-95274400D01*
X99771757Y-95261638D01*
X99920882Y-95223992D01*
X100059961Y-95161785D01*
X100184484Y-95075343D01*
X100195364Y-95065994D01*
X100319593Y-94941969D01*
X100414689Y-94810240D01*
X100481466Y-94669116D01*
X100520739Y-94516905D01*
X100533326Y-94351914D01*
X100522803Y-94204249D01*
X100486095Y-94047667D01*
X100423488Y-93906126D01*
X100335426Y-93780906D01*
X100285710Y-93723290D01*
X100278154Y-93714533D01*
X99630618Y-94361934D01*
X99516322Y-94476367D01*
X99406664Y-94586473D01*
X99305541Y-94688329D01*
X99214828Y-94780028D01*
X99136403Y-94859667D01*
X99072139Y-94925340D01*
X99023914Y-94975142D01*
X98993603Y-95007167D01*
X98983083Y-95019512D01*
X98926349Y-95019512D01*
X98869877Y-94953537D01*
X98842808Y-94919853D01*
X98765539Y-94794106D01*
X98709274Y-94652343D01*
X98674977Y-94500212D01*
X98664566Y-94356527D01*
X98693902Y-94356527D01*
X98695008Y-94402737D01*
X98699637Y-94479533D01*
X98706899Y-94547168D01*
X98715810Y-94594934D01*
X98732702Y-94647560D01*
X98776545Y-94749142D01*
X98831190Y-94846039D01*
X98889852Y-94925364D01*
X98950524Y-94994178D01*
X99593775Y-94351983D01*
X99703324Y-94242341D01*
X99812989Y-94132005D01*
X99914158Y-94029626D01*
X100004944Y-93937144D01*
X100083458Y-93856500D01*
X100147812Y-93789633D01*
X100196116Y-93738484D01*
X100226484Y-93704993D01*
X100237026Y-93691099D01*
X100232366Y-93680541D01*
X100206884Y-93653666D01*
X100164495Y-93618923D01*
X100111242Y-93580798D01*
X100053167Y-93543779D01*
X99996314Y-93512352D01*
X99989480Y-93508980D01*
X99852635Y-93458485D01*
X99716034Y-93434395D01*
X99905802Y-93434395D01*
X100006088Y-93480209D01*
X100058913Y-93507009D01*
X100132230Y-93550099D01*
X100196042Y-93593427D01*
X100285710Y-93660832D01*
X100389327Y-93547613D01*
X100476671Y-93452177D01*
X101005896Y-93452177D01*
X101022533Y-93480691D01*
X101025135Y-93484607D01*
X101044326Y-93516884D01*
X101071386Y-93565563D01*
X101101328Y-93621722D01*
X101110310Y-93638802D01*
X101136242Y-93686648D01*
X101155528Y-93720039D01*
X101164528Y-93732589D01*
X101166070Y-93725967D01*
X101168014Y-93694787D01*
X101169344Y-93643863D01*
X101169838Y-93579669D01*
X101169838Y-93426749D01*
X101085732Y-93426749D01*
X101084409Y-93426749D01*
X101032969Y-93428505D01*
X101008086Y-93435881D01*
X101005896Y-93452177D01*
X100476671Y-93452177D01*
X100492945Y-93434395D01*
X100341234Y-93430028D01*
X100320475Y-93429501D01*
X100228670Y-93428320D01*
X100131795Y-93428495D01*
X100047663Y-93430028D01*
X99905802Y-93434395D01*
X99716034Y-93434395D01*
X99704421Y-93432347D01*
X99551105Y-93430194D01*
X99424678Y-93448028D01*
X99398956Y-93451656D01*
X99254243Y-93496363D01*
X99123236Y-93563944D01*
X99000354Y-93657432D01*
X98885468Y-93779526D01*
X98794946Y-93918640D01*
X98730601Y-94072426D01*
X98729171Y-94076975D01*
X98710828Y-94142564D01*
X98699853Y-94203136D01*
X98694721Y-94270515D01*
X98693902Y-94356527D01*
X98664566Y-94356527D01*
X98663612Y-94343359D01*
X98676143Y-94187432D01*
X98713535Y-94038076D01*
X98748807Y-93951957D01*
X98830962Y-93811152D01*
X98936641Y-93684035D01*
X99061826Y-93575120D01*
X99202499Y-93488919D01*
X99327153Y-93426761D01*
X98798483Y-93426755D01*
X98269814Y-93426749D01*
X98206391Y-93537616D01*
X98204791Y-93540422D01*
X98167976Y-93608775D01*
X98131939Y-93681656D01*
X98104266Y-93743754D01*
X98065988Y-93837979D01*
X98065563Y-93839025D01*
X98025229Y-93839025D01*
X98028670Y-93813449D01*
X98033554Y-93732706D01*
X98034979Y-93630745D01*
X98034979Y-93426749D01*
X98065563Y-93426749D01*
X98065776Y-93575846D01*
X98065988Y-93724943D01*
X98142236Y-93583294D01*
X98166303Y-93538201D01*
X98193270Y-93486559D01*
X98211674Y-93449914D01*
X98218483Y-93434197D01*
X98213336Y-93431517D01*
X98185653Y-93428090D01*
X98142023Y-93426749D01*
X98065563Y-93426749D01*
X98034979Y-93426749D01*
X97453884Y-93426749D01*
X97397059Y-93426706D01*
X97239886Y-93426050D01*
X97109664Y-93424613D01*
X97007118Y-93422417D01*
X96932974Y-93419479D01*
X96887955Y-93415820D01*
X96872788Y-93411457D01*
X96874402Y-93409961D01*
X96899361Y-93405825D01*
X96953935Y-93402398D01*
X97037400Y-93399700D01*
X97149029Y-93397749D01*
X97288099Y-93396564D01*
X97453884Y-93396165D01*
X98034979Y-93396165D01*
X98034979Y-93151493D01*
X98035036Y-93125683D01*
X98036410Y-93033531D01*
X98039507Y-92964736D01*
X98044178Y-92921700D01*
X98050271Y-92906821D01*
X98051884Y-92907728D01*
X98057644Y-92929713D01*
X98061944Y-92979268D01*
X98064633Y-93053995D01*
X98065563Y-93151493D01*
X98065563Y-93396165D01*
X98161138Y-93395803D01*
X98176424Y-93395725D01*
X98223547Y-93393816D01*
X98253233Y-93385841D01*
X98266712Y-93374769D01*
X98324441Y-93374769D01*
X98326302Y-93379113D01*
X98334571Y-93382828D01*
X98351263Y-93385961D01*
X98378393Y-93388563D01*
X98417976Y-93390682D01*
X98472025Y-93392369D01*
X98542557Y-93393670D01*
X98631584Y-93394637D01*
X98741123Y-93395318D01*
X98873187Y-93395762D01*
X99029791Y-93396019D01*
X99212950Y-93396136D01*
X99424678Y-93396165D01*
X100542866Y-93396165D01*
X100542866Y-93205689D01*
X100542866Y-93205327D01*
X100558158Y-93205327D01*
X100558158Y-93367725D01*
X100649554Y-93286370D01*
X100661258Y-93275825D01*
X100701807Y-93237073D01*
X100730182Y-93206413D01*
X100740834Y-93189723D01*
X100740782Y-93189188D01*
X100728136Y-93172437D01*
X100698296Y-93144549D01*
X100658606Y-93111634D01*
X100616412Y-93079801D01*
X100579056Y-93055158D01*
X100573326Y-93053274D01*
X100565781Y-93060676D01*
X100561142Y-93085584D01*
X100558803Y-93132350D01*
X100558158Y-93205327D01*
X100542866Y-93205327D01*
X100542866Y-93015214D01*
X100436976Y-92953371D01*
X100404019Y-92934611D01*
X100203613Y-92840060D01*
X99995492Y-92773578D01*
X99782546Y-92735518D01*
X99567664Y-92726233D01*
X99353735Y-92746076D01*
X99143649Y-92795400D01*
X99061376Y-92824124D01*
X98915022Y-92889417D01*
X98770062Y-92970407D01*
X98633760Y-93062444D01*
X98513378Y-93160880D01*
X98416179Y-93261065D01*
X98380114Y-93304458D01*
X98347460Y-93344220D01*
X98327237Y-93369404D01*
X98326975Y-93369746D01*
X98324441Y-93374769D01*
X98266712Y-93374769D01*
X98276055Y-93367094D01*
X98302589Y-93332870D01*
X98338797Y-93288166D01*
X98407779Y-93215294D01*
X98490426Y-93137678D01*
X98579370Y-93061812D01*
X98667243Y-92994195D01*
X98746675Y-92941323D01*
X98907736Y-92856577D01*
X99115893Y-92776843D01*
X99330291Y-92725581D01*
X99548218Y-92702861D01*
X99766959Y-92708752D01*
G37*
G36*
X98052890Y-101228304D02*
G01*
X98058252Y-101255361D01*
X98062233Y-101309961D01*
X98064710Y-101389975D01*
X98065563Y-101493275D01*
X98065563Y-101760885D01*
X98363757Y-101760885D01*
X98661951Y-101760885D01*
X98661951Y-101584124D01*
X98662387Y-101532405D01*
X98665061Y-101465750D01*
X98670057Y-101426742D01*
X98677243Y-101416815D01*
X98682082Y-101427779D01*
X98687541Y-101464936D01*
X98691200Y-101522213D01*
X98692535Y-101593575D01*
X98692535Y-101760885D01*
X99044251Y-101760885D01*
X99395967Y-101760885D01*
X99395967Y-101585027D01*
X99396325Y-101522429D01*
X99398163Y-101465736D01*
X99402125Y-101431136D01*
X99408832Y-101413867D01*
X99418905Y-101409169D01*
X99427070Y-101411919D01*
X99434464Y-101426010D01*
X99438977Y-101456384D01*
X99441230Y-101507803D01*
X99441843Y-101585027D01*
X99441843Y-101760885D01*
X99625347Y-101760885D01*
X99808850Y-101760885D01*
X99812139Y-101581204D01*
X99815427Y-101401523D01*
X99820270Y-101581204D01*
X99825113Y-101760885D01*
X100183990Y-101760885D01*
X100542866Y-101760885D01*
X100546091Y-101604142D01*
X100549316Y-101447399D01*
X100554272Y-101604142D01*
X100559228Y-101760885D01*
X100864533Y-101760885D01*
X101169838Y-101760885D01*
X101173063Y-101604142D01*
X101176288Y-101447399D01*
X101181244Y-101604142D01*
X101186200Y-101760885D01*
X101912937Y-101760885D01*
X102103192Y-101761197D01*
X102265621Y-101762141D01*
X102398483Y-101763711D01*
X102501577Y-101765905D01*
X102574700Y-101768716D01*
X102617649Y-101772142D01*
X102630223Y-101776177D01*
X102630070Y-101776371D01*
X102610936Y-101780268D01*
X102562122Y-101783615D01*
X102484488Y-101786394D01*
X102378894Y-101788587D01*
X102246200Y-101790176D01*
X102087266Y-101791143D01*
X101902951Y-101791469D01*
X101185130Y-101791469D01*
X101185130Y-102127893D01*
X101185130Y-102464317D01*
X102049127Y-102464317D01*
X102187353Y-102464430D01*
X102377444Y-102465047D01*
X102539416Y-102466193D01*
X102672858Y-102467861D01*
X102777360Y-102470044D01*
X102852511Y-102472734D01*
X102897903Y-102475925D01*
X102913125Y-102479609D01*
X102906610Y-102482071D01*
X102871618Y-102485431D01*
X102806724Y-102488294D01*
X102712335Y-102490653D01*
X102588862Y-102492501D01*
X102436713Y-102493829D01*
X102256298Y-102494631D01*
X102048026Y-102494901D01*
X101182926Y-102494901D01*
X101188099Y-102720457D01*
X101189350Y-102767292D01*
X101193282Y-102855814D01*
X101199103Y-102920772D01*
X101207343Y-102967051D01*
X101218537Y-102999536D01*
X101225101Y-103013106D01*
X101232862Y-103025662D01*
X101238169Y-103024922D01*
X101241531Y-103007430D01*
X101243458Y-102969726D01*
X101244461Y-102908354D01*
X101245050Y-102819855D01*
X101245176Y-102802061D01*
X101246961Y-102711913D01*
X101250421Y-102644143D01*
X101255362Y-102601480D01*
X101261590Y-102586652D01*
X101263352Y-102589747D01*
X101266892Y-102618589D01*
X101269910Y-102677368D01*
X101272398Y-102765639D01*
X101274347Y-102882959D01*
X101275750Y-103028884D01*
X101276597Y-103202970D01*
X101276882Y-103404774D01*
X101276824Y-103499059D01*
X101276285Y-103688435D01*
X101275186Y-103849893D01*
X101273536Y-103982991D01*
X101271343Y-104087284D01*
X101268616Y-104162328D01*
X101265362Y-104207680D01*
X101261590Y-104222896D01*
X101261224Y-104222853D01*
X101254914Y-104206541D01*
X101249964Y-104162805D01*
X101246601Y-104094625D01*
X101245050Y-104004985D01*
X101244799Y-103963429D01*
X101244061Y-103890862D01*
X101242621Y-103843808D01*
X101239914Y-103818760D01*
X101235375Y-103812213D01*
X101228438Y-103820660D01*
X101218537Y-103840596D01*
X101213297Y-103853272D01*
X101203446Y-103891127D01*
X101196318Y-103944888D01*
X101191380Y-104019442D01*
X101188099Y-104119675D01*
X101182926Y-104345232D01*
X102064220Y-104345232D01*
X102212714Y-104345353D01*
X102405800Y-104345972D01*
X102569225Y-104347111D01*
X102702834Y-104348768D01*
X102806476Y-104350941D01*
X102879996Y-104353626D01*
X102923243Y-104356821D01*
X102936063Y-104360524D01*
X102926406Y-104363184D01*
X102887159Y-104366467D01*
X102818455Y-104369277D01*
X102720944Y-104371600D01*
X102595278Y-104373428D01*
X102442110Y-104374747D01*
X102262090Y-104375547D01*
X102055871Y-104375816D01*
X101185130Y-104375816D01*
X101185130Y-104712239D01*
X101185130Y-105048663D01*
X101912402Y-105048663D01*
X102103179Y-105048977D01*
X102265611Y-105049922D01*
X102398477Y-105051493D01*
X102501573Y-105053686D01*
X102574698Y-105056497D01*
X102617648Y-105059921D01*
X102630223Y-105063955D01*
X102630070Y-105064149D01*
X102610936Y-105068046D01*
X102562122Y-105071394D01*
X102484488Y-105074173D01*
X102378894Y-105076366D01*
X102246200Y-105077955D01*
X102087266Y-105078921D01*
X101902951Y-105079247D01*
X101185130Y-105079247D01*
X101182238Y-105167176D01*
X101179347Y-105255105D01*
X101173829Y-105167176D01*
X101168312Y-105079247D01*
X100863998Y-105079247D01*
X100863235Y-105079247D01*
X100558158Y-105079247D01*
X100554958Y-105228344D01*
X100551757Y-105377441D01*
X100546758Y-105228344D01*
X100542866Y-105112264D01*
X100541759Y-105079247D01*
X100182951Y-105079247D01*
X99824142Y-105079247D01*
X99820895Y-105243636D01*
X99817647Y-105408025D01*
X99812731Y-105243636D01*
X99807816Y-105079247D01*
X99624829Y-105079247D01*
X99441843Y-105079247D01*
X99441843Y-105241088D01*
X99441836Y-105248793D01*
X99440762Y-105321710D01*
X99437526Y-105368154D01*
X99431668Y-105391867D01*
X99422728Y-105396589D01*
X99418598Y-105393497D01*
X99409457Y-105367893D01*
X99403101Y-105315615D01*
X99399255Y-105234748D01*
X99395967Y-105117426D01*
X99394897Y-105079247D01*
X99043716Y-105079247D01*
X98692535Y-105079247D01*
X98692535Y-105224521D01*
X98692291Y-105253476D01*
X98689637Y-105314967D01*
X98684456Y-105355305D01*
X98677243Y-105369795D01*
X98674195Y-105367480D01*
X98667722Y-105342263D01*
X98663476Y-105293045D01*
X98661951Y-105224521D01*
X98661951Y-105079247D01*
X98363757Y-105079247D01*
X98065563Y-105079247D01*
X98065563Y-105323919D01*
X98065507Y-105349729D01*
X98064133Y-105441881D01*
X98061035Y-105510676D01*
X98056365Y-105553712D01*
X98050271Y-105568591D01*
X98048658Y-105567684D01*
X98042899Y-105545699D01*
X98038599Y-105496144D01*
X98035909Y-105421417D01*
X98034979Y-105323919D01*
X98034979Y-105079247D01*
X97606804Y-105079247D01*
X97537520Y-105079123D01*
X97411295Y-105078076D01*
X97311177Y-105075995D01*
X97238283Y-105072922D01*
X97193727Y-105068895D01*
X97178628Y-105063955D01*
X97182105Y-105061481D01*
X97211434Y-105056973D01*
X97269684Y-105053397D01*
X97355740Y-105050794D01*
X97468485Y-105049203D01*
X97606804Y-105048663D01*
X98034979Y-105048663D01*
X98034979Y-104712239D01*
X98034979Y-104375816D01*
X98065563Y-104375816D01*
X98065563Y-104712239D01*
X98065563Y-105048663D01*
X98363757Y-105048663D01*
X98661951Y-105048663D01*
X98661951Y-104927102D01*
X98692535Y-104927102D01*
X98692535Y-105048663D01*
X98963968Y-105047874D01*
X99235401Y-105047084D01*
X99233890Y-105046544D01*
X99984708Y-105046544D01*
X100263787Y-105047604D01*
X100542866Y-105048663D01*
X100542866Y-104926327D01*
X100542792Y-104909039D01*
X100541488Y-104855504D01*
X100538894Y-104818076D01*
X100535450Y-104803991D01*
X100525440Y-104808234D01*
X100495435Y-104824788D01*
X100453956Y-104849572D01*
X100428393Y-104864719D01*
X100364235Y-104899651D01*
X100304629Y-104928748D01*
X100299129Y-104931174D01*
X100244375Y-104953648D01*
X100175847Y-104979795D01*
X100107044Y-105004444D01*
X99984708Y-105046544D01*
X99233890Y-105046544D01*
X99072448Y-104988855D01*
X99026246Y-104971522D01*
X98942617Y-104936899D01*
X98863423Y-104900588D01*
X98801015Y-104868084D01*
X98692535Y-104805540D01*
X98692535Y-104927102D01*
X98661951Y-104927102D01*
X98661951Y-104912338D01*
X98661951Y-104777567D01*
X100558158Y-104777567D01*
X100558158Y-104913115D01*
X100558158Y-105048663D01*
X100863998Y-105048663D01*
X101169838Y-105048663D01*
X101169838Y-104712239D01*
X101169838Y-104375816D01*
X101085732Y-104375816D01*
X101075933Y-104375816D01*
X100982028Y-104375816D01*
X100832945Y-104533135D01*
X100820959Y-104545712D01*
X100760975Y-104606749D01*
X100703660Y-104662264D01*
X100655008Y-104706578D01*
X100621010Y-104734010D01*
X100558158Y-104777567D01*
X98661951Y-104777567D01*
X98661951Y-104776012D01*
X98650963Y-104767946D01*
X98586004Y-104720262D01*
X98583487Y-104718390D01*
X98546564Y-104687709D01*
X98499519Y-104644468D01*
X98446988Y-104593446D01*
X98393608Y-104539421D01*
X98344018Y-104487172D01*
X98302855Y-104441477D01*
X98274756Y-104407113D01*
X98264359Y-104388860D01*
X98251381Y-104382435D01*
X98215581Y-104377646D01*
X98164961Y-104375816D01*
X98142023Y-104375816D01*
X98065563Y-104375816D01*
X98034979Y-104375816D01*
X97453884Y-104375816D01*
X97397059Y-104375773D01*
X97239886Y-104375116D01*
X97109664Y-104373680D01*
X97007118Y-104371484D01*
X96932974Y-104368546D01*
X96887955Y-104364886D01*
X96872788Y-104360524D01*
X96874402Y-104359028D01*
X96899361Y-104354892D01*
X96953935Y-104351465D01*
X97037400Y-104348767D01*
X97149029Y-104346816D01*
X97288099Y-104345631D01*
X97453884Y-104345232D01*
X98034979Y-104345232D01*
X98065563Y-104345232D01*
X98142023Y-104345232D01*
X98169580Y-104344454D01*
X98204494Y-104340302D01*
X98205761Y-104339684D01*
X101001626Y-104339684D01*
X101009109Y-104341965D01*
X101039659Y-104344319D01*
X101085732Y-104345232D01*
X101169838Y-104345232D01*
X101169838Y-104199958D01*
X101169621Y-104162417D01*
X101168358Y-104106993D01*
X101166216Y-104068868D01*
X101163486Y-104054684D01*
X101162192Y-104056231D01*
X101157512Y-104061826D01*
X101139153Y-104090777D01*
X101111992Y-104136827D01*
X101079380Y-104194410D01*
X101055007Y-104238490D01*
X101027424Y-104289206D01*
X101008594Y-104324874D01*
X101001626Y-104339684D01*
X98205761Y-104339684D01*
X98217895Y-104333763D01*
X98214274Y-104324077D01*
X98198558Y-104291718D01*
X98173295Y-104243181D01*
X98141656Y-104184666D01*
X98066529Y-104047991D01*
X98066005Y-104047038D01*
X98065784Y-104196135D01*
X98065563Y-104345232D01*
X98034979Y-104345232D01*
X98034747Y-104134967D01*
X98034674Y-104115231D01*
X98031664Y-104000813D01*
X98024347Y-103913897D01*
X98012832Y-103855888D01*
X98007477Y-103839343D01*
X98000837Y-103822799D01*
X97996242Y-103821301D01*
X97993284Y-103837957D01*
X97991553Y-103875874D01*
X97990637Y-103938160D01*
X97990126Y-104027923D01*
X97989974Y-104051848D01*
X97988220Y-104142873D01*
X97984825Y-104211093D01*
X97979964Y-104253921D01*
X97973811Y-104268772D01*
X97971698Y-104264153D01*
X97968248Y-104232286D01*
X97965308Y-104170501D01*
X97962885Y-104079223D01*
X97960986Y-103958879D01*
X97959621Y-103809895D01*
X97958796Y-103632697D01*
X97958519Y-103427712D01*
X97958528Y-103415116D01*
X98693541Y-103415116D01*
X98694385Y-103454134D01*
X98699085Y-103532317D01*
X98706884Y-103603221D01*
X98716660Y-103655200D01*
X98769006Y-103795572D01*
X98848134Y-103930547D01*
X98948966Y-104052341D01*
X99067081Y-104155629D01*
X99198059Y-104235086D01*
X99226378Y-104248624D01*
X99285014Y-104275643D01*
X99332838Y-104296361D01*
X99361560Y-104307125D01*
X99395967Y-104316709D01*
X99395967Y-103421097D01*
X99824142Y-103421097D01*
X99824142Y-104316709D01*
X99858549Y-104306146D01*
X99964974Y-104268762D01*
X100080831Y-104212015D01*
X100183200Y-104139741D01*
X100281399Y-104046211D01*
X100335375Y-103985490D01*
X100399598Y-103898913D01*
X100449845Y-103807430D01*
X100493588Y-103698812D01*
X100510278Y-103641697D01*
X100529371Y-103526523D01*
X100535294Y-103402404D01*
X100527749Y-103281356D01*
X100506443Y-103175394D01*
X100457833Y-103046643D01*
X100377054Y-102903092D01*
X100275149Y-102776301D01*
X100155306Y-102670121D01*
X100020710Y-102588402D01*
X99990755Y-102574313D01*
X99932574Y-102549262D01*
X99885439Y-102531948D01*
X99857433Y-102525485D01*
X99824142Y-102525485D01*
X99824142Y-103421097D01*
X99395967Y-103421097D01*
X99395967Y-103414274D01*
X99395967Y-102511840D01*
X99314351Y-102539920D01*
X99289825Y-102548557D01*
X99203583Y-102583895D01*
X99127552Y-102625650D01*
X99046376Y-102681961D01*
X98964396Y-102743127D01*
X99081250Y-102860670D01*
X99120153Y-102901127D01*
X99157833Y-102943718D01*
X99181429Y-102974731D01*
X99186976Y-102989342D01*
X99176718Y-102986490D01*
X99148596Y-102966214D01*
X99108008Y-102931095D01*
X99059817Y-102885119D01*
X98944853Y-102770829D01*
X98943787Y-102769769D01*
X98889494Y-102842600D01*
X98837070Y-102916233D01*
X98795761Y-102984670D01*
X98762898Y-103055084D01*
X98731914Y-103139860D01*
X98730517Y-103144042D01*
X98711368Y-103208120D01*
X98699938Y-103266657D01*
X98694554Y-103331655D01*
X98693541Y-103415116D01*
X97958528Y-103415116D01*
X97958603Y-103311489D01*
X97959183Y-103121743D01*
X97960306Y-102960020D01*
X97961966Y-102826744D01*
X97964154Y-102722344D01*
X97966863Y-102647244D01*
X97970084Y-102601871D01*
X97973811Y-102586652D01*
X97974168Y-102586693D01*
X97980477Y-102602969D01*
X97985412Y-102646686D01*
X97988750Y-102714874D01*
X97990267Y-102804563D01*
X97990288Y-102808590D01*
X97990968Y-102891867D01*
X97992234Y-102948052D01*
X97994530Y-102980499D01*
X97998300Y-102992562D01*
X98003989Y-102987595D01*
X98012041Y-102968952D01*
X98016077Y-102956100D01*
X98025376Y-102899720D01*
X98031341Y-102815450D01*
X98033816Y-102705165D01*
X98034979Y-102494901D01*
X98065563Y-102494901D01*
X98066046Y-102643997D01*
X98066529Y-102793094D01*
X98142376Y-102647820D01*
X98167352Y-102599783D01*
X98193702Y-102548567D01*
X98211676Y-102512971D01*
X98218174Y-102499106D01*
X98723119Y-102499106D01*
X98728235Y-102505424D01*
X98750983Y-102529429D01*
X98787763Y-102566825D01*
X98833986Y-102612900D01*
X98944853Y-102722488D01*
X99036605Y-102652368D01*
X99089704Y-102614826D01*
X99158453Y-102571863D01*
X99220109Y-102538586D01*
X99295844Y-102502547D01*
X101004346Y-102502547D01*
X101083269Y-102647820D01*
X101162192Y-102793094D01*
X101166614Y-102649694D01*
X101167495Y-102614507D01*
X101167924Y-102557510D01*
X101166887Y-102516891D01*
X101164482Y-102499740D01*
X101157193Y-102497728D01*
X101126369Y-102496374D01*
X101081137Y-102497866D01*
X101074244Y-102498286D01*
X101004346Y-102502547D01*
X99295844Y-102502547D01*
X99311861Y-102494925D01*
X99044251Y-102494914D01*
X99017490Y-102494913D01*
X99008204Y-102494914D01*
X98918017Y-102495157D01*
X98839748Y-102495764D01*
X98778065Y-102496669D01*
X98737633Y-102497805D01*
X98723119Y-102499106D01*
X98218174Y-102499106D01*
X98218353Y-102498724D01*
X98213249Y-102497348D01*
X98185626Y-102495589D01*
X98142023Y-102494901D01*
X98065563Y-102494901D01*
X98034979Y-102494901D01*
X97438592Y-102494901D01*
X97367429Y-102494837D01*
X97209855Y-102494136D01*
X97079364Y-102492677D01*
X96976655Y-102490476D01*
X96902426Y-102487553D01*
X96857376Y-102483924D01*
X96842204Y-102479609D01*
X96844690Y-102477784D01*
X96872014Y-102473744D01*
X96928933Y-102470398D01*
X97014749Y-102467764D01*
X97128763Y-102465861D01*
X97270277Y-102464706D01*
X97438592Y-102464317D01*
X98034979Y-102464317D01*
X98034979Y-102127893D01*
X98065563Y-102127893D01*
X98065563Y-102464317D01*
X98153492Y-102464308D01*
X98241421Y-102464300D01*
X98329350Y-102365973D01*
X98345518Y-102347686D01*
X98382215Y-102304395D01*
X98407721Y-102271666D01*
X98415862Y-102257875D01*
X98476254Y-102257875D01*
X98558114Y-102338158D01*
X98564821Y-102344699D01*
X98604720Y-102382096D01*
X98635499Y-102408462D01*
X98650963Y-102418441D01*
X98654156Y-102411816D01*
X98658176Y-102380635D01*
X98660930Y-102329712D01*
X98661951Y-102265521D01*
X98661415Y-102221080D01*
X98658890Y-102165129D01*
X98654768Y-102126811D01*
X98649571Y-102112601D01*
X98649095Y-102112644D01*
X98631178Y-102123367D01*
X98598129Y-102149332D01*
X98556723Y-102185238D01*
X98476254Y-102257875D01*
X98415862Y-102257875D01*
X98417279Y-102255474D01*
X98412336Y-102246898D01*
X98389818Y-102219806D01*
X98353253Y-102179967D01*
X98307239Y-102132523D01*
X98274386Y-102098394D01*
X98237089Y-102056265D01*
X98213707Y-102025348D01*
X98208300Y-102010642D01*
X98219390Y-102014054D01*
X98248152Y-102035124D01*
X98289301Y-102070918D01*
X98338041Y-102117484D01*
X98456680Y-102235428D01*
X98509036Y-102181409D01*
X98522613Y-102167887D01*
X98568850Y-102126340D01*
X98611568Y-102093235D01*
X98648529Y-102068074D01*
X98692535Y-102068074D01*
X98692535Y-102266195D01*
X98692535Y-102464317D01*
X99044251Y-102464317D01*
X99395967Y-102464317D01*
X99395967Y-102135539D01*
X99395967Y-101806761D01*
X99360183Y-101806761D01*
X99354246Y-101806847D01*
X99284718Y-101815845D01*
X99196595Y-101837917D01*
X99096758Y-101870613D01*
X98992086Y-101911480D01*
X98889459Y-101958066D01*
X98795756Y-102007920D01*
X98692535Y-102068074D01*
X98648529Y-102068074D01*
X98661742Y-102059079D01*
X98661847Y-101925274D01*
X98661855Y-101914846D01*
X98692535Y-101914846D01*
X98692535Y-102038223D01*
X98734588Y-102008535D01*
X98753888Y-101995658D01*
X98824040Y-101955479D01*
X98910911Y-101912508D01*
X99005242Y-101871147D01*
X99097773Y-101835802D01*
X99211292Y-101796224D01*
X100007646Y-101796224D01*
X100013675Y-101799600D01*
X100041908Y-101808940D01*
X100085442Y-101820917D01*
X100090312Y-101822245D01*
X100136820Y-101838542D01*
X100201362Y-101865180D01*
X100276064Y-101898775D01*
X100353052Y-101935940D01*
X100542866Y-102031025D01*
X100542866Y-101918787D01*
X100558158Y-101918787D01*
X100558158Y-102046106D01*
X100676582Y-102144758D01*
X100694653Y-102160168D01*
X100762512Y-102222695D01*
X100830689Y-102291356D01*
X100886828Y-102353864D01*
X100978651Y-102464317D01*
X101074244Y-102464317D01*
X101169838Y-102464317D01*
X101169838Y-102127893D01*
X101169838Y-101791469D01*
X100863998Y-101791469D01*
X100558158Y-101791469D01*
X100558158Y-101918787D01*
X100542866Y-101918787D01*
X100542866Y-101911247D01*
X100542866Y-101791469D01*
X100275256Y-101791469D01*
X100200114Y-101791661D01*
X100123251Y-101792316D01*
X100062289Y-101793353D01*
X100022123Y-101794685D01*
X100007646Y-101796224D01*
X99211292Y-101796224D01*
X99220109Y-101793150D01*
X98956322Y-101792310D01*
X98692535Y-101791469D01*
X98692535Y-101914846D01*
X98661855Y-101914846D01*
X98661951Y-101791469D01*
X98363757Y-101791469D01*
X98065563Y-101791469D01*
X98065563Y-102127893D01*
X98034979Y-102127893D01*
X98034979Y-101791469D01*
X97606804Y-101791469D01*
X97537520Y-101791345D01*
X97411295Y-101790297D01*
X97311177Y-101788217D01*
X97238283Y-101785143D01*
X97193727Y-101781117D01*
X97178628Y-101776177D01*
X97182105Y-101773702D01*
X97211434Y-101769194D01*
X97269684Y-101765619D01*
X97355740Y-101763015D01*
X97468485Y-101761424D01*
X97606804Y-101760885D01*
X98034979Y-101760885D01*
X98034979Y-101493275D01*
X98035130Y-101447441D01*
X98036676Y-101353607D01*
X98039796Y-101283947D01*
X98044368Y-101240590D01*
X98050271Y-101225665D01*
X98052890Y-101228304D01*
G37*
G36*
X98872090Y-112420025D02*
G01*
X98879186Y-112427624D01*
X98884338Y-112446893D01*
X98887835Y-112481613D01*
X98889972Y-112535568D01*
X98891040Y-112612539D01*
X98891331Y-112716308D01*
X98891331Y-113013212D01*
X99480073Y-113013307D01*
X100068814Y-113013401D01*
X100068814Y-112838738D01*
X100069391Y-112784779D01*
X100072274Y-112720205D01*
X100077287Y-112678729D01*
X100084106Y-112664076D01*
X100088890Y-112670873D01*
X100094514Y-112704100D01*
X100098124Y-112761685D01*
X100099398Y-112839934D01*
X100099398Y-113015792D01*
X100489344Y-113015792D01*
X100879290Y-113015792D01*
X100879290Y-112977562D01*
X100883779Y-112952625D01*
X100902228Y-112939332D01*
X100917190Y-112946814D01*
X100925166Y-112977562D01*
X100925166Y-113015792D01*
X101513908Y-113015792D01*
X102102649Y-113015792D01*
X102102649Y-112794058D01*
X102102654Y-112787598D01*
X102103804Y-112697517D01*
X102106861Y-112629788D01*
X102111637Y-112587145D01*
X102117941Y-112572324D01*
X102118387Y-112572386D01*
X102124599Y-112589069D01*
X102129270Y-112633398D01*
X102132211Y-112702639D01*
X102133233Y-112794058D01*
X102133233Y-113015792D01*
X102522759Y-113015792D01*
X102912285Y-113015792D01*
X102916528Y-112799135D01*
X102917255Y-112766389D01*
X102920391Y-112681329D01*
X102925012Y-112623138D01*
X102931413Y-112589008D01*
X102939886Y-112576127D01*
X102946912Y-112579284D01*
X102952655Y-112598836D01*
X102956383Y-112638647D01*
X102958397Y-112702151D01*
X102959001Y-112792783D01*
X102959001Y-113015792D01*
X103498044Y-113019413D01*
X104037085Y-113023034D01*
X103498044Y-113027254D01*
X102959001Y-113031475D01*
X102959001Y-113428871D01*
X102959001Y-113826267D01*
X103494221Y-113826267D01*
X103613212Y-113826354D01*
X103734119Y-113826768D01*
X103829627Y-113827634D01*
X103902596Y-113829076D01*
X103955886Y-113831216D01*
X103992355Y-113834176D01*
X104014865Y-113838079D01*
X104026273Y-113843048D01*
X104029440Y-113849205D01*
X104027406Y-113854305D01*
X104017756Y-113859487D01*
X103997540Y-113863580D01*
X103963898Y-113866707D01*
X103913971Y-113868991D01*
X103844900Y-113870554D01*
X103753824Y-113871518D01*
X103637884Y-113872007D01*
X103494221Y-113872143D01*
X102959001Y-113872143D01*
X102959001Y-114262089D01*
X102959001Y-114652035D01*
X103494221Y-114652035D01*
X103508426Y-114652038D01*
X103664229Y-114652543D01*
X103793532Y-114653896D01*
X103895519Y-114656074D01*
X103969377Y-114659054D01*
X104014289Y-114662813D01*
X104029440Y-114667327D01*
X104029334Y-114667733D01*
X104011662Y-114672184D01*
X103964298Y-114675879D01*
X103888057Y-114678792D01*
X103783753Y-114680903D01*
X103652203Y-114682186D01*
X103494221Y-114682619D01*
X102959001Y-114682619D01*
X102959001Y-115271361D01*
X102959001Y-115860102D01*
X103494221Y-115860102D01*
X103613212Y-115860189D01*
X103734119Y-115860603D01*
X103829627Y-115861469D01*
X103902596Y-115862911D01*
X103955886Y-115865051D01*
X103992355Y-115868011D01*
X104014865Y-115871914D01*
X104026273Y-115876883D01*
X104029440Y-115883040D01*
X104027406Y-115888140D01*
X104017756Y-115893322D01*
X103997540Y-115897415D01*
X103963898Y-115900542D01*
X103913971Y-115902826D01*
X103844900Y-115904389D01*
X103753824Y-115905354D01*
X103637884Y-115905842D01*
X103494221Y-115905978D01*
X102959001Y-115905978D01*
X102959001Y-116295924D01*
X102959001Y-116685870D01*
X103494221Y-116685870D01*
X103508426Y-116685873D01*
X103664229Y-116686378D01*
X103793532Y-116687731D01*
X103895519Y-116689909D01*
X103969377Y-116692889D01*
X104014289Y-116696648D01*
X104029440Y-116701162D01*
X104029334Y-116701568D01*
X104011662Y-116706019D01*
X103964298Y-116709714D01*
X103888057Y-116712628D01*
X103783753Y-116714738D01*
X103652203Y-116716021D01*
X103494221Y-116716454D01*
X102959001Y-116716454D01*
X102959001Y-117014648D01*
X102958950Y-117064219D01*
X102958355Y-117155914D01*
X102956859Y-117222473D01*
X102954172Y-117267671D01*
X102950004Y-117295282D01*
X102944065Y-117309081D01*
X102936063Y-117312842D01*
X102932250Y-117312174D01*
X102925196Y-117304438D01*
X102920076Y-117284993D01*
X102916600Y-117250066D01*
X102914476Y-117195883D01*
X102913414Y-117118668D01*
X102913125Y-117014648D01*
X102913125Y-116716454D01*
X102910737Y-116716454D01*
X102523179Y-116716454D01*
X102133233Y-116716454D01*
X102133233Y-117014648D01*
X102132918Y-117087951D01*
X102131199Y-117183582D01*
X102128067Y-117254167D01*
X102123616Y-117297866D01*
X102117941Y-117312842D01*
X102114182Y-117306693D01*
X102109278Y-117273169D01*
X102105658Y-117212094D01*
X102103417Y-117125307D01*
X102102649Y-117014648D01*
X102102649Y-116716454D01*
X101513908Y-116716454D01*
X101477046Y-116716454D01*
X100925166Y-116716454D01*
X100925166Y-117014648D01*
X100925115Y-117064219D01*
X100924520Y-117155914D01*
X100923024Y-117222473D01*
X100920337Y-117267671D01*
X100916169Y-117295282D01*
X100910230Y-117309081D01*
X100902228Y-117312842D01*
X100898415Y-117312174D01*
X100891361Y-117304438D01*
X100886241Y-117284993D01*
X100882765Y-117250066D01*
X100880641Y-117195883D01*
X100879579Y-117118668D01*
X100879290Y-117014648D01*
X100879290Y-116716454D01*
X100856564Y-116716454D01*
X100489344Y-116716454D01*
X100099398Y-116716454D01*
X100099398Y-116976418D01*
X100099282Y-117015513D01*
X100097789Y-117108824D01*
X100094675Y-117178214D01*
X100090071Y-117221471D01*
X100084106Y-117236382D01*
X100081807Y-117234411D01*
X100076318Y-117209022D01*
X100072236Y-117156085D01*
X100069691Y-117077812D01*
X100068814Y-116976418D01*
X100068814Y-116716454D01*
X100053522Y-116716454D01*
X99480073Y-116716454D01*
X99472427Y-116716454D01*
X98891331Y-116716454D01*
X98891331Y-117052878D01*
X98891144Y-117152299D01*
X98890335Y-117239584D01*
X98888657Y-117302998D01*
X98885867Y-117346108D01*
X98881722Y-117372483D01*
X98875978Y-117385692D01*
X98868393Y-117389301D01*
X98861614Y-117386560D01*
X98855663Y-117374689D01*
X98851339Y-117350079D01*
X98848400Y-117309161D01*
X98846602Y-117248367D01*
X98845701Y-117164129D01*
X98845455Y-117052878D01*
X98845455Y-116716454D01*
X98455509Y-116716454D01*
X98067157Y-116716454D01*
X98065563Y-116716454D01*
X98065563Y-117052878D01*
X98065009Y-117161405D01*
X98063136Y-117258771D01*
X98060008Y-117330248D01*
X98055696Y-117374278D01*
X98050271Y-117389301D01*
X98045338Y-117377101D01*
X98040913Y-117335890D01*
X98037664Y-117267076D01*
X98035662Y-117172219D01*
X98034979Y-117052878D01*
X98034979Y-116716454D01*
X97453884Y-116716454D01*
X97397059Y-116716411D01*
X97239886Y-116715755D01*
X97109664Y-116714318D01*
X97007118Y-116712122D01*
X96932974Y-116709184D01*
X96887955Y-116705525D01*
X96872788Y-116701162D01*
X96874402Y-116699666D01*
X96899361Y-116695530D01*
X96953935Y-116692103D01*
X97037400Y-116689405D01*
X97149029Y-116687454D01*
X97288099Y-116686269D01*
X97453884Y-116685870D01*
X98034979Y-116685870D01*
X98034979Y-116295924D01*
X98034979Y-115905978D01*
X97453884Y-115905978D01*
X97421228Y-115905974D01*
X97276812Y-115905796D01*
X97159677Y-115905278D01*
X97067076Y-115904313D01*
X96996260Y-115902791D01*
X96944482Y-115900605D01*
X96908994Y-115897645D01*
X96887048Y-115893803D01*
X96875895Y-115888971D01*
X96872788Y-115883040D01*
X96872899Y-115881751D01*
X96877407Y-115876051D01*
X96890514Y-115871427D01*
X96914969Y-115867771D01*
X96953519Y-115864976D01*
X97008913Y-115862932D01*
X97083899Y-115861531D01*
X97181224Y-115860665D01*
X97303636Y-115860225D01*
X97453884Y-115860102D01*
X98034979Y-115860102D01*
X98034979Y-115812590D01*
X98891331Y-115812590D01*
X98891331Y-115860102D01*
X99017490Y-115859133D01*
X99143649Y-115858165D01*
X99044251Y-115823417D01*
X98992127Y-115804881D01*
X98945789Y-115787803D01*
X98918092Y-115776874D01*
X98905651Y-115772854D01*
X98894134Y-115780676D01*
X98891331Y-115812590D01*
X98034979Y-115812590D01*
X98034979Y-115271361D01*
X98034979Y-115208328D01*
X98891331Y-115208328D01*
X98891331Y-115734037D01*
X98979260Y-115765968D01*
X99081971Y-115801016D01*
X99173321Y-115825791D01*
X99261366Y-115841077D01*
X99357327Y-115848806D01*
X99472427Y-115850910D01*
X99501562Y-115850515D01*
X99828224Y-115850515D01*
X99839468Y-115853960D01*
X99874178Y-115856728D01*
X99927363Y-115858328D01*
X100053522Y-115860102D01*
X100053522Y-115859959D01*
X100925166Y-115859959D01*
X100925166Y-115860102D01*
X101104847Y-115859959D01*
X101284528Y-115859815D01*
X101282693Y-115858751D01*
X101743288Y-115858751D01*
X101922968Y-115859426D01*
X102102649Y-115860102D01*
X102102649Y-115689519D01*
X102102649Y-115518937D01*
X102043866Y-115609886D01*
X102010212Y-115656862D01*
X101965592Y-115709442D01*
X101925353Y-115747813D01*
X101910633Y-115758991D01*
X101856137Y-115796242D01*
X101804456Y-115826771D01*
X101743288Y-115858751D01*
X101282693Y-115858751D01*
X101208068Y-115815475D01*
X101206207Y-115814390D01*
X101111166Y-115744927D01*
X101027537Y-115657445D01*
X100964875Y-115561908D01*
X100925953Y-115485448D01*
X100925559Y-115672775D01*
X100925166Y-115859959D01*
X100053522Y-115859959D01*
X100053522Y-115814912D01*
X100053522Y-115769721D01*
X99957947Y-115805545D01*
X99909193Y-115823358D01*
X99861662Y-115839774D01*
X99831788Y-115848961D01*
X99828224Y-115850515D01*
X99501562Y-115850515D01*
X99555112Y-115849789D01*
X99666771Y-115842893D01*
X99765504Y-115828170D01*
X99861853Y-115803855D01*
X99966360Y-115768180D01*
X100053522Y-115735569D01*
X100053522Y-115262264D01*
X100927010Y-115262264D01*
X100938349Y-115386937D01*
X100975531Y-115504869D01*
X101036509Y-115612191D01*
X101119232Y-115705039D01*
X101221652Y-115779544D01*
X101341718Y-115831839D01*
X101350005Y-115834351D01*
X101477046Y-115856807D01*
X101602768Y-115850939D01*
X101723196Y-115818736D01*
X101834351Y-115762188D01*
X101932256Y-115683284D01*
X102012933Y-115584013D01*
X102072405Y-115466365D01*
X102081413Y-115439292D01*
X102100025Y-115336205D01*
X102100926Y-115223740D01*
X102084650Y-115113507D01*
X102051732Y-115017110D01*
X102028013Y-114974241D01*
X101956214Y-114883458D01*
X101862920Y-114803095D01*
X101754349Y-114738969D01*
X101732123Y-114728621D01*
X101682312Y-114708275D01*
X101637162Y-114696685D01*
X101584938Y-114691474D01*
X101539523Y-114690701D01*
X102841723Y-114690701D01*
X102842652Y-114709454D01*
X102853709Y-114745633D01*
X102874895Y-114804955D01*
X102910737Y-114904353D01*
X102911931Y-114793486D01*
X102912207Y-114758235D01*
X102911048Y-114715327D01*
X102905902Y-114692788D01*
X102894580Y-114684069D01*
X102874895Y-114682619D01*
X102870251Y-114682612D01*
X102850922Y-114683659D01*
X102841723Y-114690701D01*
X101539523Y-114690701D01*
X101513908Y-114690265D01*
X101505162Y-114690276D01*
X101434782Y-114692023D01*
X101382481Y-114698187D01*
X101336988Y-114710845D01*
X101287037Y-114732073D01*
X101175620Y-114795225D01*
X101077895Y-114879005D01*
X101004413Y-114979681D01*
X100953429Y-115099171D01*
X100943565Y-115134715D01*
X100927010Y-115262264D01*
X100053522Y-115262264D01*
X100053522Y-115209094D01*
X100053384Y-115107518D01*
X100052867Y-114992226D01*
X100052012Y-114890072D01*
X100050868Y-114804545D01*
X100049484Y-114739134D01*
X100047907Y-114697329D01*
X100046187Y-114682619D01*
X100043059Y-114684851D01*
X100028493Y-114705902D01*
X100021395Y-114718754D01*
X100008580Y-114741957D01*
X99968513Y-114803557D01*
X99900557Y-114877311D01*
X99818956Y-114943740D01*
X99732434Y-114994854D01*
X99684687Y-115016305D01*
X99644107Y-115030123D01*
X99601560Y-115037842D01*
X99547511Y-115041187D01*
X99480073Y-115041812D01*
X99472427Y-115041883D01*
X99407659Y-115041312D01*
X99350437Y-115038362D01*
X99307123Y-115031470D01*
X99268627Y-115019079D01*
X99225859Y-114999631D01*
X99132009Y-114943773D01*
X99034435Y-114859153D01*
X98960145Y-114761137D01*
X98938764Y-114726797D01*
X98916075Y-114695221D01*
X98907896Y-114687643D01*
X98952499Y-114687643D01*
X98956830Y-114696274D01*
X98974056Y-114724394D01*
X98999925Y-114764267D01*
X99047501Y-114826434D01*
X99133430Y-114904409D01*
X99243047Y-114969891D01*
X99270665Y-114982945D01*
X99310505Y-114997893D01*
X99352340Y-115006506D01*
X99405689Y-115010452D01*
X99480073Y-115011397D01*
X99533440Y-115011014D01*
X99592139Y-115008260D01*
X99636554Y-115001344D01*
X99676351Y-114988531D01*
X99721194Y-114968086D01*
X99721673Y-114967850D01*
X99795964Y-114922526D01*
X99870448Y-114862320D01*
X99935564Y-114795899D01*
X99981750Y-114731929D01*
X100009375Y-114682619D01*
X99480937Y-114682619D01*
X99377632Y-114682716D01*
X99262242Y-114683072D01*
X99160021Y-114683658D01*
X99074454Y-114684442D01*
X99009023Y-114685389D01*
X98967210Y-114686467D01*
X98952499Y-114687643D01*
X98907896Y-114687643D01*
X98902800Y-114682922D01*
X98900598Y-114692657D01*
X98898083Y-114729587D01*
X98895856Y-114790775D01*
X98893990Y-114872732D01*
X98892564Y-114971969D01*
X98891652Y-115084998D01*
X98891331Y-115208328D01*
X98034979Y-115208328D01*
X98034979Y-114682619D01*
X97453884Y-114682619D01*
X97397059Y-114682576D01*
X97239886Y-114681919D01*
X97109664Y-114680483D01*
X97007118Y-114678287D01*
X96932974Y-114675349D01*
X96887955Y-114671690D01*
X96872788Y-114667327D01*
X96874402Y-114665831D01*
X96899361Y-114661695D01*
X96953935Y-114658268D01*
X97037400Y-114655570D01*
X97149029Y-114653619D01*
X97288099Y-114652434D01*
X97453884Y-114652035D01*
X98034979Y-114652035D01*
X98034979Y-114457801D01*
X98898010Y-114457801D01*
X98911151Y-114567929D01*
X98929769Y-114644389D01*
X99475582Y-114648404D01*
X100021395Y-114652419D01*
X100037373Y-114594882D01*
X100051301Y-114510616D01*
X100052967Y-114412384D01*
X100049699Y-114380733D01*
X100042877Y-114314661D01*
X100021642Y-114231550D01*
X100014201Y-114213469D01*
X99967437Y-114132939D01*
X99901770Y-114052290D01*
X99825037Y-113980197D01*
X99745075Y-113925340D01*
X99708733Y-113906643D01*
X99684976Y-113897537D01*
X100808432Y-113897537D01*
X100822701Y-113937134D01*
X100835910Y-113962854D01*
X100856564Y-113978708D01*
X100872747Y-113965963D01*
X100879290Y-113925665D01*
X100878373Y-113909549D01*
X100925166Y-113909549D01*
X100925166Y-113946956D01*
X101007307Y-113918695D01*
X101041309Y-113907193D01*
X101088001Y-113892040D01*
X101118174Y-113883063D01*
X101120662Y-113882241D01*
X101115004Y-113878608D01*
X101095904Y-113876715D01*
X101888562Y-113876715D01*
X101888825Y-113877114D01*
X101905719Y-113884243D01*
X101943745Y-113896961D01*
X101995605Y-113912810D01*
X102102649Y-113944333D01*
X102102649Y-113908238D01*
X102102486Y-113900075D01*
X102098362Y-113884491D01*
X102083607Y-113876136D01*
X102051571Y-113872768D01*
X101995605Y-113872143D01*
X102133233Y-113872143D01*
X102133628Y-113921842D01*
X102137235Y-113953477D01*
X102153962Y-113976985D01*
X102191952Y-113998203D01*
X102217647Y-114011271D01*
X102286337Y-114053678D01*
X102364551Y-114109530D01*
X102444413Y-114172727D01*
X102518044Y-114237171D01*
X102577568Y-114296763D01*
X102590679Y-114311753D01*
X102641074Y-114375686D01*
X102693369Y-114449730D01*
X102738134Y-114520731D01*
X102773123Y-114579667D01*
X102798942Y-114618182D01*
X102819437Y-114639674D01*
X102839350Y-114649089D01*
X102863426Y-114651374D01*
X102913125Y-114652035D01*
X102913125Y-114262089D01*
X102913125Y-113872143D01*
X102523179Y-113872143D01*
X102133233Y-113872143D01*
X101995605Y-113872143D01*
X101991364Y-113872147D01*
X101939410Y-113872828D01*
X101902563Y-113874461D01*
X101888562Y-113876715D01*
X101095904Y-113876715D01*
X101085068Y-113875641D01*
X101036033Y-113873917D01*
X101001926Y-113873471D01*
X100958523Y-113874361D01*
X100935627Y-113879268D01*
X100926690Y-113890296D01*
X100925166Y-113909549D01*
X100878373Y-113909549D01*
X100877497Y-113894137D01*
X100866913Y-113876142D01*
X100841060Y-113872143D01*
X100835779Y-113872278D01*
X100824826Y-113872559D01*
X100808435Y-113878511D01*
X100808432Y-113897537D01*
X99684976Y-113897537D01*
X99671658Y-113892432D01*
X99629941Y-113883544D01*
X99574933Y-113878205D01*
X99497988Y-113874640D01*
X99446978Y-113872908D01*
X99388551Y-113872249D01*
X99345746Y-113875410D01*
X99309533Y-113883996D01*
X99270882Y-113899609D01*
X99220761Y-113923853D01*
X99185179Y-113942532D01*
X99088080Y-114009782D01*
X99012273Y-114093116D01*
X98951394Y-114199034D01*
X98939092Y-114227828D01*
X98907747Y-114340552D01*
X98899373Y-114441388D01*
X98898010Y-114457801D01*
X98034979Y-114457801D01*
X98034979Y-114262089D01*
X98034979Y-113983010D01*
X98066360Y-113983010D01*
X98067157Y-114093877D01*
X98104336Y-113994479D01*
X98106719Y-113988108D01*
X98127560Y-113931255D01*
X98137713Y-113896897D01*
X98137153Y-113879368D01*
X98125855Y-113873005D01*
X98103793Y-113872143D01*
X98091729Y-113872443D01*
X98076928Y-113877143D01*
X98069241Y-113892770D01*
X98066455Y-113925875D01*
X98066360Y-113983010D01*
X98034979Y-113983010D01*
X98034979Y-113872143D01*
X97453884Y-113872143D01*
X97421228Y-113872139D01*
X97276812Y-113871961D01*
X97159677Y-113871443D01*
X97067076Y-113870478D01*
X96996260Y-113868956D01*
X96944482Y-113866770D01*
X96908994Y-113863810D01*
X96887048Y-113859968D01*
X96875895Y-113855136D01*
X96872788Y-113849205D01*
X96872899Y-113847916D01*
X96877407Y-113842215D01*
X96890514Y-113837592D01*
X96914969Y-113833936D01*
X96953519Y-113831141D01*
X97008913Y-113829097D01*
X97083899Y-113827696D01*
X97181224Y-113826830D01*
X97303636Y-113826390D01*
X97453884Y-113826267D01*
X98034979Y-113826267D01*
X98034979Y-113428675D01*
X98065563Y-113428675D01*
X98065563Y-113826267D01*
X98115262Y-113826086D01*
X98143152Y-113823386D01*
X98164840Y-113811384D01*
X98186506Y-113783999D01*
X98214807Y-113735151D01*
X98221451Y-113723225D01*
X98323358Y-113570375D01*
X98449338Y-113426975D01*
X98593482Y-113299019D01*
X98749880Y-113192501D01*
X98763402Y-113184558D01*
X98807977Y-113156515D01*
X98832655Y-113134769D01*
X98843219Y-113112747D01*
X98845455Y-113083873D01*
X98845455Y-113078596D01*
X98891331Y-113078596D01*
X98892111Y-113099555D01*
X98899373Y-113117637D01*
X98918092Y-113115208D01*
X98928103Y-113111311D01*
X98966438Y-113097358D01*
X99013667Y-113080955D01*
X99058517Y-113064582D01*
X99089284Y-113048930D01*
X99090134Y-113038573D01*
X99080479Y-113036681D01*
X99839434Y-113036681D01*
X99852365Y-113044180D01*
X99886726Y-113058683D01*
X99935009Y-113076993D01*
X99983441Y-113094616D01*
X100026152Y-113110222D01*
X100049699Y-113118908D01*
X100063770Y-113112958D01*
X100068235Y-113082542D01*
X100099398Y-113082542D01*
X100101086Y-113107210D01*
X100109540Y-113127312D01*
X100129765Y-113147352D01*
X100166769Y-113172268D01*
X100225557Y-113206999D01*
X100311548Y-113263656D01*
X100423616Y-113355262D01*
X100532543Y-113462258D01*
X100630841Y-113577154D01*
X100711021Y-113692462D01*
X100741910Y-113742448D01*
X100771539Y-113786188D01*
X100794131Y-113811596D01*
X100814079Y-113823385D01*
X100835779Y-113826267D01*
X100879290Y-113826267D01*
X100879290Y-113428675D01*
X100925166Y-113428675D01*
X100925166Y-113826267D01*
X101513908Y-113826267D01*
X102102649Y-113826267D01*
X102102649Y-113428675D01*
X102133233Y-113428675D01*
X102133233Y-113826267D01*
X102523179Y-113826267D01*
X102913125Y-113826267D01*
X102913125Y-113428675D01*
X102913125Y-113031084D01*
X102523179Y-113031084D01*
X102133233Y-113031084D01*
X102133233Y-113428675D01*
X102102649Y-113428675D01*
X102102649Y-113031084D01*
X101513908Y-113031084D01*
X100925166Y-113031084D01*
X100925166Y-113428675D01*
X100879290Y-113428675D01*
X100879290Y-113031084D01*
X100489344Y-113031084D01*
X100099398Y-113031084D01*
X100099398Y-113082542D01*
X100068235Y-113082542D01*
X100068814Y-113078596D01*
X100068814Y-113031084D01*
X99954124Y-113031084D01*
X99943417Y-113031108D01*
X99890632Y-113032026D01*
X99853480Y-113034005D01*
X99839434Y-113036681D01*
X99080479Y-113036681D01*
X99060905Y-113032845D01*
X99001433Y-113031084D01*
X98891331Y-113031084D01*
X98891331Y-113078596D01*
X98845455Y-113078596D01*
X98845455Y-113031084D01*
X98455509Y-113031084D01*
X98065563Y-113031084D01*
X98065563Y-113428675D01*
X98034979Y-113428675D01*
X98034979Y-113031084D01*
X97450061Y-113027448D01*
X96865142Y-113023812D01*
X97450061Y-113019620D01*
X98034979Y-113015428D01*
X98034979Y-112717416D01*
X98035294Y-112644278D01*
X98037012Y-112548656D01*
X98040144Y-112478076D01*
X98044595Y-112434379D01*
X98050271Y-112419404D01*
X98054030Y-112425552D01*
X98058935Y-112459077D01*
X98062554Y-112520152D01*
X98064795Y-112606938D01*
X98065563Y-112717598D01*
X98065563Y-113015792D01*
X98455509Y-113015792D01*
X98845455Y-113015792D01*
X98845455Y-112717598D01*
X98845506Y-112668026D01*
X98846101Y-112576331D01*
X98847597Y-112509772D01*
X98850284Y-112464574D01*
X98854452Y-112436963D01*
X98860391Y-112423165D01*
X98868393Y-112419404D01*
X98872090Y-112420025D01*
G37*
D13*
%TO.C,J2*%
X89730000Y-77140000D02*
X89730000Y-125510000D01*
X92490000Y-74490000D02*
X91110000Y-74490000D01*
X92490000Y-75870000D02*
X92490000Y-74490000D01*
X92490000Y-77140000D02*
X89730000Y-77140000D01*
X92490000Y-77140000D02*
X92490000Y-125510000D01*
X92490000Y-125510000D02*
X89730000Y-125510000D01*
%TO.C,J3*%
X107510000Y-77140000D02*
X107510000Y-125510000D01*
X110270000Y-74490000D02*
X108890000Y-74490000D01*
X110270000Y-75870000D02*
X110270000Y-74490000D01*
X110270000Y-77140000D02*
X107510000Y-77140000D01*
X110270000Y-77140000D02*
X110270000Y-125510000D01*
X110270000Y-125510000D02*
X107510000Y-125510000D01*
%TD*%
M02*
